<?xml version="1.0" encoding="utf-8"?>
<!-- Generator: Adobe Illustrator 27.5.0, SVG Export Plug-In . SVG Version: 6.00 Build 0)  -->
<svg version="1.1" id="Layer_1" xmlns="http://www.w3.org/2000/svg" xmlns:xlink="http://www.w3.org/1999/xlink" x="0px" y="0px"
	 viewBox="0 0 1000 1000" style="enable-background:new 0 0 1000 1000;" xml:space="preserve">
<style type="text/css">
	.st0{fill:#E0A26D;}
	.st1{fill:#C7795E;}
	.st2{fill:#BAB8C2;}
	.st3{fill:#E3DFE5;}
	.st4{fill:#B6DCEA;}
	.st5{fill:#8FBED3;}
	.st6{fill:#AAD4E5;}
	.st7{opacity:0.3;fill:#93C7DA;}
</style>
<g>
	<polygon class="st0" points="532.8,46.1 452.8,460.6 760.5,502.4 840.5,87.9 812.1,111.1 792.7,81.4 770.3,101.7 753,76 
		726.6,98.4 709.2,70.1 683.3,94 660,63.4 635.1,82.3 618.6,57.8 596,77.2 580.4,52.6 557.5,73.1 	"/>
	<polygon class="st1" points="910.5,97.4 873.3,514 760.5,502.4 840.5,87.9 852,112.6 869.2,91.8 877.2,116.5 892.5,94.9 
		895.6,119.5 	"/>
</g>
<g>
	<path class="st2" d="M83.3,332.3c-9.7,19.8,15.2,507.4,40.8,509.9c25.6,2.6,395.1-27.1,398-38.6c2.9-11.5-43.3-522.6-70.5-532.9
		C424.4,260.4,94,310.5,83.3,332.3z"/>
	<path class="st3" d="M57.5,323c-9.7,19.9,41,516.7,66.6,519.2c25.6,2.6,369.3-36.4,372.2-47.9c2.9-11.5-43.4-522.6-70.6-532.9
		C398.6,251.1,68.2,301.2,57.5,323z"/>
	<g>
		<polygon class="st2" points="213,491.5 93.9,509.8 75.5,389.6 194.6,371.3 		"/>
		<polygon class="st2" points="332.5,782.1 138.1,811.8 119.7,691.6 314.1,661.8 		"/>
		<polygon class="st2" points="428.5,354.7 222.7,386.2 219.8,367.5 425.6,336 		"/>
		<polygon class="st2" points="434.2,391.8 228.3,423.3 225.5,404.6 431.3,373.1 		"/>
		<polygon class="st2" points="333.7,483.3 239.7,497.6 236.9,478.9 330.8,464.5 		"/>
		<polygon class="st2" points="370.7,515.6 181.6,544.5 178.8,525.8 367.9,496.9 		"/>
		<polygon class="st2" points="456.3,541 106.2,594.6 103.3,575.9 453.5,522.3 		"/>
		<polygon class="st2" points="461.5,578.7 111.3,632.3 108.4,613.6 458.6,560 		"/>
		<polygon class="st2" points="466.6,616.4 116.4,670 113.5,651.3 463.7,597.7 		"/>
		<polygon class="st2" points="471.7,654.2 330.5,675.8 327.7,657 468.8,635.4 		"/>
		<polygon class="st2" points="477.3,691.1 336.2,712.7 333.3,694 474.5,672.4 		"/>
		<polygon class="st2" points="483,728 341.8,749.6 339,730.9 480.1,709.3 		"/>
		<polygon class="st2" points="418.1,775.7 347.5,786.5 344.6,767.8 415.2,757 		"/>
		<polygon class="st2" points="371.1,321.7 131.7,358.3 127,327.5 366.4,290.9 		"/>
	</g>
</g>
<g>
	<polygon class="st4" points="676.9,555.9 623.7,423 729.6,480.9 739.2,545.8 780.9,603.2 750.2,613.7 720.3,562.2 	"/>
	<polygon class="st5" points="615.6,436.6 623.7,423 676.9,555.9 720.3,562.2 750.2,613.7 780.9,603.2 770.6,620.7 744.5,622.8 
		713.3,570.6 667,564.4 	"/>
	<polygon class="st5" points="493.1,489.9 488.4,497.9 539.6,561.3 603.4,570.2 611.3,563.8 	"/>
	<polygon class="st5" points="603.6,588.5 595.9,601.5 597.2,649.9 700,653.5 708.1,646.6 	"/>
	<polygon class="st5" points="694.1,697.4 689.7,708.8 704.8,731.7 782.8,746.1 810.7,731.4 815.8,722.7 	"/>
	<polygon class="st5" points="806.2,641.8 807.8,650.4 904.8,676.6 928.5,667.8 930.4,660.2 	"/>
	<polygon class="st5" points="776.1,520.3 774.6,527.4 829.5,548.8 894.2,558 897.3,552.9 	"/>
	<polygon class="st5" points="760.1,457.8 764.4,464.9 792.8,468.7 810,450.1 807.3,444.3 	"/>
	<polygon class="st4" points="776.1,520.3 843,498.5 897.3,552.9 830.1,540.5 	"/>
	<polygon class="st4" points="760.1,457.8 778.3,427.1 807.3,444.3 790.6,462.1 	"/>
	<polygon class="st4" points="806.7,626.7 878.2,612.3 930.4,660.2 908.6,667.1 806.2,641.8 	"/>
	<polygon class="st4" points="694.1,697.4 741.3,670.1 815.8,722.7 784.3,737 710,722.9 	"/>
	<polygon class="st4" points="603,642.6 603.6,588.5 641.4,577.8 708.1,646.6 	"/>
	<polygon class="st4" points="543.4,552.8 493.1,489.9 532.2,448.6 611.3,563.8 	"/>
</g>
<g>
	<path class="st4" d="M410.2,623.5c0,0,28.4,237.7,66.7,275.3c0.1,0.3,269.3,50.8,269.5,50.5c49.3-21.2,161.9-232.4,161.9-232.4
		L410.2,623.5z"/>
	<path class="st6" d="M746.4,949.5c-2.8,15-65.4,16-139.9,2C532,937.6,474,914,476.8,899c2.8-15,65.4-16,139.9-2
		C691.1,910.9,749.2,934.5,746.4,949.5z"/>
	<path class="st7" d="M578.4,943.8c-30.8-35.8-50.3-232.5-56.1-299.3l-112.1-21c0,0,28.4,237.7,66.7,275.3
		c-2.5,13.3,41.2,32.8,101.6,46.8C578.4,945,578.3,944.4,578.4,943.8z"/>
	<polygon class="st5" points="834.8,720.4 816.7,760 797.8,788.7 822.1,764.6 847,722.7 	"/>
	<path class="st5" d="M908.3,716.9c-4.2,22.6-119.2,20-256.7-5.8c-137.5-25.8-245.6-65-241.4-87.6c4.2-22.6,119.2-20,256.7,5.8
		C804.5,655.1,912.5,694.3,908.3,716.9z"/>
	<polygon class="st5" points="723.8,705.9 710.6,776 689.2,779.1 618.5,817.8 645.2,852.4 649.2,903.1 673.3,863.9 718.7,842.9 
		763.4,858.5 779.9,803.3 786.3,736.4 847,722.7 	"/>
	<polygon class="st5" points="680.1,790.8 636.3,756.7 580.1,793.6 639.7,741.2 694.1,783.2 	"/>
</g>
</svg>
