<?xml version="1.0" encoding="UTF-8"?><svg id="Layer_1" xmlns="http://www.w3.org/2000/svg" xmlns:xlink="http://www.w3.org/1999/xlink" viewBox="0 0 939 944.76"><defs><style>.cls-1{fill:url(#linear-gradient-2);}.cls-2{fill:#23b68c;}.cls-3{fill:url(#New_Gradient_Swatch_1-3);}.cls-4{fill:url(#New_Gradient_Swatch_1);}.cls-5{fill:url(#New_Gradient_Swatch_1-2);}.cls-6{fill:#002953;}.cls-7{fill:url(#linear-gradient-3);}.cls-8{fill:url(#linear-gradient);}.cls-9{fill:url(#New_Gradient_Swatch_1-4);}</style><linearGradient id="linear-gradient" x1="65.92" y1="595.64" x2="915.8" y2="595.64" gradientTransform="matrix(1, 0, 0, 1, 0, 0)" gradientUnits="userSpaceOnUse"><stop offset="0" stop-color="#055184"/><stop offset="1" stop-color="#101429"/></linearGradient><linearGradient id="linear-gradient-2" x1="258.27" y1="670.22" x2="1019.87" y2="670.22" gradientTransform="matrix(1, 0, 0, 1, 0, 0)" gradientUnits="userSpaceOnUse"><stop offset="0" stop-color="#54c6d5"/><stop offset="1" stop-color="#1a73b3"/></linearGradient><linearGradient id="linear-gradient-3" x1="621.08" y1="828.18" x2="840.31" y2="828.18" xlink:href="#linear-gradient-2"/><linearGradient id="New_Gradient_Swatch_1" x1="100.42" y1="463.99" x2="270.9" y2="463.99" gradientTransform="matrix(1, 0, 0, 1, 0, 0)" gradientUnits="userSpaceOnUse"><stop offset="0" stop-color="#15b68b"/><stop offset="1" stop-color="#80c890"/></linearGradient><linearGradient id="New_Gradient_Swatch_1-2" x1="0" y1="385.72" x2="108.59" y2="385.72" xlink:href="#New_Gradient_Swatch_1"/><linearGradient id="New_Gradient_Swatch_1-3" x1="249.95" y1="352.77" x2="590.29" y2="352.77" xlink:href="#New_Gradient_Swatch_1"/><linearGradient id="New_Gradient_Swatch_1-4" x1="311.44" y1="412.6" x2="481.28" y2="412.6" xlink:href="#New_Gradient_Swatch_1"/></defs><path class="cls-8" d="M311.86,729.35c13.01-2.12,24.3-7.83,34.44-16.14,10.7-8.76,17.73-19.96,23.33-32.45,3.82-8.51,7.35-16.99,9.6-26.08,6.42-25.88-1.11-48.07-17.83-67.7-11.5-13.5-25.14-24.62-40.11-34.16-10.58-6.75-20.56-14.33-28.85-23.87-8.73-10.04-7.15-19.8,4.48-26.47,9.25-5.31,19.64-7.34,30-9.03,17.08-2.78,34.37-2.33,51.57-1.98,11.91,.24,23.85,1.41,35.66,3,12.61,1.7,25.15,4.03,37.58,6.84,3.38,.77,6.83,1.34,10.23,1.92,2.63,.45,4.48-1.72,5.78-4.22,6.72-12.83,14.87-24.79,23.08-36.69,4.71-6.82,9.77-13.41,14.82-19.99,12.52-16.33,26.75-31.13,41.29-45.65,11.79-11.78,24.45-22.62,37.87-32.37,22.56-16.38,46.06-31.27,71.58-42.93,16.62-7.59,33.6-13.64,51.37-17.56,8.99-1.98,18.03-3.64,27.2-4.74,17.66-2.13,35.38-2.79,53.07-1.62,14.81,.98,29.57,2.63,44.21,5.73,11.58,2.46,22.89,5.68,34.13,9.21,5.66,1.78,10.98,4.66,16.38,7.19,6.7,3.13,13.24,6.61,18.97,11.33,8.24,6.79,14.72,14.63,14.02,26.26-.21,3.44-1.49,6.27-3.94,8.75-9.13,9.26-21.32,11.67-33.13,14.93-7.89,2.18-15.97,3.46-23.79,6.13-4.75,1.62-10.26,1.78-14.86,3.89-8.49,3.89-17.68,5.5-26.2,9.73-12.12,6-24.4,11.85-35.06,19.93-13.03,9.86-24.97,21.11-35.41,34-9.23,11.39-17.14,23.61-23.87,36.38-6.88,13.04-12.24,26.95-17.55,40.83-6.55,17.11-11.61,34.64-16.98,52.08-5.13,16.66-10.34,33.29-16.49,49.58-6.4,16.94-12.21,34.13-20.74,50.23-6.63,12.5-12.78,25.29-20.32,37.26-6.49,10.3-13.06,20.62-21.87,29.29-6.2,6.11-9.26,13.61-9.31,22.61-.03,5.5-1.86,10.99-1.43,16.62-.44,10.58-1.84,21.13-1.11,31.76,1.27,18.27,2.94,36.48-.07,54.83-2.54,15.48-11.87,19.82-26.08,17.94-11.87-1.58-21.36-8.24-30.51-15.55-8.98-7.18-16.53-15.72-24.33-24.06-3.16-4.16-6.26-8.36-9.49-12.47-1.68-2.14-3.71-1.7-5.72-.35-20.93,14.12-43.68,24.15-68.23,29.99-10.4,2.47-20.97,4.27-31.67,4.51-10.81,.25-21.69,.49-32.45-.37-11.6-.92-23-3.61-34.28-6.57-30.47-7.98-58.31-21.58-84.68-38.66-8.43-5.46-16.1-11.78-24.21-17.55-8.69-6.18-16.12-13.54-23.34-21.2-4.84-5.14-11.14-8.57-15.47-14.34-5.86-7.81-13.39-14.18-19.69-21.67-7.88-9.36-15.56-18.9-22.76-28.74-9.18-12.54-17.5-25.71-25.55-39.04-5.63-9.33-10.69-19-15.64-28.64-3.87-7.53-6.78-15.74-10.36-23.49-7.58-16.4-12.64-33.62-17.04-50.99-2.89-11.41-3.91-23.29-5.16-35.07-1.59-14.97-1.19-29.91,.25-44.77,1.33-13.82,5.29-27.09,11.54-39.59,.11-.22,.52-.28,1.29-.66-2.27,9.57-3.4,18.97-2.76,28.42,.91,13.33,2.99,26.44,7.36,39.2,3.64,10.62,7.32,21.18,12.08,31.36,6.21,13.27,13.77,25.75,21.7,38.03,5.82,9.01,12.2,17.68,19.27,25.68,7.27,8.23,13.61,17.3,22.05,24.57,2.34,2.02,3.78,5.36,6.32,7.65,10.6,9.56,21.58,18.64,32.68,27.61,8.49,6.86,17.33,13.18,26.72,18.42,9.37,5.23,18.96,10.21,29.12,14.23,7.06,2.79,14.22,5.23,21.43,7.39,11.18,3.35,22.75,2.95,34.27,2.39,.63,.5,1.16,.35,1.6-.28Zm307.46-225.75c.5,11.56,4.49,20.36,14.85,25.26,2.73,1.29,5.64,3.04,8.73,2.36,7.05-1.54,12.39-5.63,16.38-11.73,6.2-9.48,9.49-20.3,14.39-30.38,8.64-17.77,19.91-34.26,25.65-53.44,1.46-4.89-1.71-10.04-6.85-10.27-6.4-.28-12.46,.96-17.99,4.21-11.48,6.76-22.18,14.67-31.68,23.96-14.14,13.82-21.72,30.91-23.47,50.01Z"/><path class="cls-1" d="M512.7,854.34c7.79,8.34,15.35,16.88,24.33,24.06,9.15,7.31,18.63,13.98,30.51,15.55,14.22,1.89,23.54-2.46,26.08-17.94,3.01-18.35,1.34-36.55,.07-54.83-.74-10.63,.67-21.18,1.11-31.76,3.3-1.22,5.55-3.79,7.84-6.25,34.66-37.3,60.17-80.19,78.04-127.74,8.14-21.67,16.09-43.42,21.58-65.95,5.86-24.03,27.8-79.25,40.41-100.73,8.27-14.1,18.16-26.85,29.87-38.44,7.21-7.13,14.7-13.95,22.94-19.45,10.11-6.76,21.29-12.04,32.85-16.29,22.95-8.44,46.56-14.24,70.64-18.29,4.61-.78,9.28-.72,13.89-.24,11.66,1.22,17.03,7.57,19.64,22.12,1.46,8.13,2.45,16.34,3.83,24.47,.61,3.62,1.36,7.88,.83,11.97-.79,6.01,1.94,11.76,1.86,17.8-.17,12.91-.47,25.83-.05,38.73,.29,8.87-1.21,17.52-1.73,26.27-.92,15.57-4.02,30.74-6.45,46.06-1.84,11.54-4.4,22.92-7.88,33.95-4.97,15.75-9.14,31.83-15.95,46.95-3.66,8.12-9.08,15.24-14.42,22.3-9.42,12.46-20.89,22.66-33.68,31.81-9.37,6.7-19.59,11.62-29.4,17.33-6.57,3.83-14.34,5.56-21.46,8.52-16.75,6.97-33.88,12.94-50.72,19.66-16.54,6.6-33.19,12.86-49.22,20.63-10.49,5.09-20.41,11.07-30.27,17.38-19.56,12.51-34.16,29.46-47.08,48.19-8.94,12.98-14.91,27.55-21.22,41.88-5.97,13.55-13.86,25.86-24.98,35.51-6.7,5.81-15.37,8.99-24.08,11.28-11.29,2.96-22.75,4.3-34.47,4.99-17.01,1-34,.42-50.99,.88-10.22,.28-20.42-.67-30.53-1.43-13.49-1.02-26.78-4.38-40.22-6.29-9.19-1.3-18.04-4.08-27.15-5.72-4.04-.73-8.1-2.38-12.16-3.61-11.15-3.38-22.43-6.53-33.23-10.85-18.15-7.26-36.01-15.27-53.28-24.53-21.39-11.46-41.35-25.1-60.8-39.55-12.98-9.64-24.81-20.65-36.9-31.35-1.3-1.15-2.33-2.42-3.27-4.49,5.57,2.58,9.97,6.18,14.56,9.4,12.14,8.51,25.14,15.55,38.3,22.22,28.83,14.6,59.22,24.79,91.02,30.54,24.35,4.4,48.8,6.71,73.71,5.56,30.33-1.39,59.71-6.49,88.15-17.04,10.14-3.76,19.89-8.4,29.55-13.24Z"/><path class="cls-6" d="M140.41,272.3c1.87-6.24,3.9-12.22,5.44-18.33,4.34-17.22,10.24-33.98,17.43-50.11,6.29-14.11,13.1-28.15,23-40.4,4.42-5.47,8.47-10.99,14.74-14.59,6.66-3.82,13.51-4.75,20.84-2.73,1.13,.31,1.47,1.34,2.16,2.08,6.43,6.83,7.05,15.83,9.21,24.22,2.08,8.07,3.5,16.31,6.15,24.24,1.49,4.48,4.54,7.25,9.37,7.77,2.34,.25,4.38-.5,5.68-2.42,5.8-8.59,11.54-17.17,16.47-26.35,4.03-7.5,8.93-14.57,12.5-22.34,3.88-8.43,8.36-16.56,12.48-24.85,4.07-8.22,9.27-15.96,13.73-24.05,8.82-15.98,18.81-31.24,28.76-46.5,5.31-8.13,12.27-15.19,18.48-22.73,1.54-1.87,3.39-3.55,4.58-5.61,3.39-5.87,9.97-8.19,14.19-13.1,.35-.41,1.06-.5,1.49-.87,14.55-12.38,31.67-17.24,50.27-15.17,12.29,1.37,23.36,5.96,32.72,15.5,9,9.17,14.56,20.11,20.94,30.74,7.03,11.72,12.69,24.23,18.06,36.67,9.12,21.13,18.32,42.22,27.71,63.23,7.72,17.26,15.58,34.47,25.84,50.44,3.41,5.31,7.25,10.32,11.52,14.99,10.27,11.23,19.45,5.49,23.24-5.76,3.01-8.95,4.18-18.27,4.08-27.72-.22-19.18-.08-38.37-.94-57.52-.54-12.03,1.19-23.78,4.33-35,2.95-10.55,9.18-20.31,21.16-23.13,5.24-1.23,10.87-.64,16.43,.32,6.65,1.15,13.18,3,19.19,5.56,6.67,2.84,12.57,7.64,18.57,11.91,20.22,14.39,38.39,31.15,55.56,49,11.45,11.91,22.95,23.81,33.83,36.23,9.88,11.27,19.04,23.18,28.36,34.93,10.97,13.83,20.89,28.42,30.41,43.28,3.08,4.81,6.18,9.61,8.48,14.87,.29,.67,1.15,1.32,.27,1.94-.74,.52-1.65,.51-2.39-.37-12.7-15.17-28.41-27.26-42.25-41.25-21.02-21.25-43.02-41.4-66.57-59.8-12.54-9.79-25.54-19.02-39.02-27.48-13.49-8.47-27.25-3.99-34.05,10.49-3.72,7.92-2.99,16.06-2.43,24.32,.72,10.76,1.03,21.54-.15,32.3-.17,1.52-.33,3.05-.32,4.58,.09,14.57-1.47,28.98-5.54,42.95-3.18,10.92-7.14,21.76-15.33,30.04-6.21,6.28-13.87,10.29-23.21,9.49-7.24-.62-13.01-4.42-18.29-8.94-13.73-11.75-24.21-26.25-34.29-41.07-18.73-27.54-35.35-56.41-53.16-84.53-5.93-9.37-12.31-18.45-18.2-27.81-6.88-10.95-15.99-19.86-24.27-29.52-5.29-6.17-11.32-11.56-18.06-16.25-8.99-6.25-21.53-3.97-29.55,2.41-17.71,14.09-29.12,33.1-41.47,51.4-4.5,6.66-8.12,13.9-12.36,20.68-8.89,14.22-17.56,28.58-26.33,42.88-3.62,5.9-6.93,12.2-10.87,17.71-11.8,16.49-22.99,33.73-39.91,45.83-7.42,5.31-15.82,8.2-24.8,8.48-4.92,.15-9.26-2.63-12.36-6.71-6.53-8.59-9.4-18.8-12.64-28.84-2.27-7.03-3.89-14.31-7.9-20.67-4.64-7.38-9.42-8.61-17.03-4.3-5.58,3.16-10.09,7.63-14.52,12.18-15,15.43-28.06,32.24-37,51.99-.26,.57-.64,1.44-2.42,1.18Z"/><path class="cls-7" d="M622.27,918.92c.46-8.25,2.8-15.32,5.89-22.34,4.16-9.45,8.29-18.89,13.17-28,17.36-32.41,44.41-53.79,77.29-68.83,20.43-9.35,40.97-18.37,62.08-26.1,15.05-5.51,30.1-11.13,44.73-17.64,14.43-6.42,29.46-11.87,42.11-21.79,.97-.76,1.99-1.86,3.18-.64,1.04,1.07-.25,2.03-.69,2.87-5.23,9.91-12.84,18.16-19.12,27.32-7.88,11.49-16.87,21.95-25.94,32.41-9.63,11.12-20.19,21.36-30.94,31.33-13.9,12.91-28.81,24.68-44.36,35.6-15.21,10.68-30.95,20.49-47.3,29.33-5.65,3.05-11.61,5.64-17.14,8.75-7.79,4.4-16.57,6.14-24.24,10.31-9.14,4.97-19.17,6.99-28.72,10.57-1.57,.59-3.28,.84-4.95,1.11-3.78,.61-5.69-.82-5.08-4.27Z"/><path class="cls-4" d="M270.89,410.86c.19,6.27-2.21,12.18-4.26,17.77-8.52,23.24-18.06,46.04-34.3,65.29-10.38,12.31-23.54,20.33-38.67,25.25-6.58,2.14-13.52,.42-20.25,1.05-19.53,1.82-35.93-7.18-52.71-14.95-2.05-.95-1.86-2.72-1.71-4.36,1.8-19.67,9.89-35.82,26.75-46.87,12.51-8.21,26.44-11.67,41.3-11.74,4.76-.02,9.52,0,14.72,0-.9-2.74-2.79-3.4-4.65-3.69-10.62-1.64-21.01-4.67-32.01-3.95-16.3,1.06-30.17,6.97-41.31,18.93-7.01,7.52-12.46,16.07-16.21,25.7-1.27,3.27-3.28,6.13-5.97,8.37-1.66-.81-1.18-2.07-.99-2.97,2.78-13.07,4.51-26.42,10.61-38.59,11.01-21.97,28.52-34.09,53.04-37.54,14.61-2.06,28.68-1.03,42.64,2.47,10.61,2.66,21.42,3.61,32.14,5.19,9.68,1.43,18.89-2.07,28.11-4.57,1.16-.31,2.16-1.24,3.73-.81Z"/><path class="cls-5" d="M94.89,450.4c11.38-54.19-20.79-71.13-49.96-79.57,9.64,5.55,18.21,10.97,24.92,18.84,14.31,16.78,17,35.73,10.63,56.39-.54,1.77-1.44,3.43-1.97,5.2-.85,2.83-2.78,4.05-5.57,3.82-22.67-1.88-43.55-8.3-59.11-25.92C4.7,418.82-.36,406.51,.02,392.29c.28-10.36-.3-20.75,.2-31.09,.43-8.9,3.2-17.48,5.21-26.13,1.32-5.69,2.71-11.41,5.28-16.75,1.19-2.48,2.66-2.58,4.04-.51,9.63,14.42,24.48,21.58,39.75,27.52,16.01,6.23,29.93,14.98,41.23,27.89,10.16,11.6,13.8,25.3,12.67,40.38-.94,12.5-4.98,24.11-11.22,34.95-.42,.72-.61,1.83-2.29,1.85Z"/><path class="cls-3" d="M249.95,329.16c3.94-3,8.58-3.15,13.08-3.45,21.56-1.45,42.92-.31,63.69,6.2,8.42,2.64,16.3,6.66,24.07,10.8,18.77,10,38.97,12.59,59.77,11.15,5.22-.36,10.42-.69,15.64-.71,17.55-.06,34.94-2.51,52.43-3.44,5.25-.28,10.52-.45,15.77-.3,15.18,.45,30.2-2.6,45.38-1.86,15.35,.75,30.71,1.4,45.9,3.9,1.56,.26,3.36,.32,4.62,2.58-9.6,.92-18.88,1.66-28.13,2.72-9.21,1.06-18.35,2.97-27.58,3.58-11.51,.76-22.78,3-34.15,4.59-24.25,3.4-47.98,9.64-72.12,13.65-22.14,3.67-43.57,2.43-63.5-9.72-15.17-9.24-30.54-18.18-46.68-25.69-14.18-6.6-28.9-11.82-44.39-13.89-7.74-1.04-15.82-2.87-23.78-.1Z"/><path class="cls-9" d="M311.44,399.37c5.42-1.01,10.68-.49,15.86-.9,11.9-.93,23,1.61,33.41,7.42,8.86,4.95,18.46,6.49,28.52,6.73,17.49,.42,34.72-3.14,52.17-2.94,10.36,.12,20.72,.12,31.08,.18,3.08,.02,5.95,.9,8.8,2.2-5.19,1.71-10.62,2.47-15.76,2.83-19.03,1.31-37.57,5.25-56.12,9.19-7.09,1.51-14.36,2.96-21.39,2.84-6.16-.11-12.57-2.23-18.36-5.55-11.63-6.69-23.09-13.74-35.87-18.27-6.23-2.21-12.5-2.05-18.86-1.88-1.22,.03-2.54,.39-3.48-1.84Z"/><path class="cls-2" d="M311.86,729.35c-.44,.63-.96,.78-1.6,.28,.46-.53,1.01-.52,1.6-.28Z"/></svg>