<?xml version="1.0" encoding="UTF-8"?><svg xmlns="http://www.w3.org/2000/svg" viewBox="0 0 980.23 185.01"><defs><style>.cls-1{fill:#e3dfe5;}.cls-2{fill:#aec6db;}.cls-3{fill:#aad4e5;}.cls-4{isolation:isolate;}.cls-5{fill:#c7795e;}.cls-6{fill:#edb48a;}.cls-7{fill:#a37454;}.cls-8{fill:#bab8c2;}.cls-9{fill:#d78b66;}.cls-10{fill:#90abc7;}.cls-11{fill:#93c7da;mix-blend-mode:multiply;opacity:.3;}.cls-12{fill:#e0a26d;}.cls-13{fill:#96b1cd;}.cls-14{fill:#89a2bf;}.cls-15{fill:#c0cfe0;}.cls-16{fill:#8fbed3;}.cls-17{fill:#b6dcea;}</style></defs><g class="cls-4"><g id="Layer_1"><path class="cls-8" d="m13.67,12.07c-3.99,5.94-17.72,163.52-9.61,165.47,8.1,1.96,128.01,8.89,129.44,5.32,1.44-3.58,9.37-169.66,1.1-174.16-8.27-4.51-116.53-3.15-120.92,3.37Z"/><path class="cls-1" d="m5.82,7.94c-4,5.94-9.87,167.65-1.76,169.6,8.1,1.96,120.15,4.76,121.58,1.19,1.43-3.57,9.36-169.66,1.09-174.16C118.46.07,10.21,1.42,5.82,7.94Z"/><rect class="cls-8" x="8.88" y="29.84" width="39.06" height="39.4" transform="translate(-.69 .4) rotate(-.81)"/><polygon class="cls-8" points="73.61 167.52 9.9 168.41 9.35 129.02 73.06 128.12 73.61 167.52"/><rect class="cls-8" x="55.94" y="28.98" width="67.48" height="6.13" transform="translate(-.44 1.27) rotate(-.81)"/><polygon class="cls-8" points="123.64 46.82 56.16 47.76 56.08 41.63 123.54 40.68 123.64 46.82"/><rect class="cls-8" x="56.29" y="53.33" width="67.47" height="6.13" transform="translate(-.78 1.27) rotate(-.81)"/><polygon class="cls-8" points="87.31 71.68 56.51 72.11 56.42 65.98 87.22 65.55 87.31 71.68"/><rect class="cls-8" x="35.73" y="78.01" width="61.98" height="6.14" transform="translate(-1.13 .94) rotate(-.8)"/><rect class="cls-8" x="9.28" y="90.34" width="114.77" height="6.14" transform="translate(-1.3 .94) rotate(-.8)"/><rect class="cls-8" x="9.24" y="102.68" width="114.78" height="6.13" transform="translate(-1.48 .95) rotate(-.8)"/><polygon class="cls-8" points="124.02 120.34 9.24 121.95 9.17 115.82 123.93 114.21 124.02 120.34"/><rect class="cls-8" x="77.67" y="126.86" width="46.27" height="6.14" transform="translate(-1.8 1.42) rotate(-.8)"/><rect class="cls-8" x="77.84" y="138.96" width="46.26" height="6.14" transform="translate(-2 1.44) rotate(-.81)"/><polygon class="cls-8" points="124.31 156.88 78.05 157.52 77.97 151.38 124.22 150.74 124.31 156.88"/><polygon class="cls-8" points="101.35 169.3 78.22 169.62 78.14 163.48 101.26 163.16 101.35 169.3"/><polygon class="cls-8" points="106.52 21.49 28.03 22.59 27.89 12.5 106.37 11.41 106.52 21.49"/><polygon class="cls-12" points="175.26 15.5 167.51 171.64 282.52 170.92 290.25 14.78 281.05 24.78 272.41 14.89 265.23 23.52 257.55 14.98 249.02 24.57 241.2 15.08 232.95 25.21 222.81 15.19 214.67 23.42 207.34 15.29 200.04 23.59 193.04 15.38 185.74 24.08 175.26 15.5"/><polygon class="cls-5" points="316.41 14.61 324.47 169.31 282.52 170.92 290.25 14.78 295.75 23.24 300.97 14.7 305.2 23.35 309.69 14.65 312.1 23.49 316.41 14.61"/><path class="cls-17" d="m346.69,39.93s30.1,95.66,48.77,108.18c.07.11,114.82.04,114.9-.07,18.65-12.53,48.65-108.23,48.65-108.23l-212.32.12Z"/><path class="cls-3" d="m510.36,148.12c0,6.41-25.71,11.64-57.44,11.66s-57.45-5.18-57.45-11.59c0-6.41,25.71-11.64,57.44-11.66,31.72-.02,57.45,5.18,57.45,11.59Z"/><path class="cls-11" d="m440.77,158.79c-15.46-12.34-38.73-91.84-46.3-118.88l-47.77.02s30.1,95.66,48.77,108.18c0,5.66,19.49,10.32,45.45,11.42-.06-.25-.16-.49-.15-.74Z"/><polygon class="cls-16" points="529.04 46.94 524.63 64.65 519.1 77.93 527.21 66.13 534.21 46.93 529.04 46.94"/><path class="cls-16" d="m559.01,39.81c0,9.63-47.52,17.46-106.15,17.5-58.63.03-106.16-7.75-106.17-17.38,0-9.63,47.52-17.46,106.15-17.49,58.63-.03,106.17,7.74,106.17,17.37Z"/><polygon class="cls-16" points="482.19 49.55 482.2 79.44 473.63 82.39 447.53 103.8 461.19 115.97 466.74 136.53 473.65 118.55 490.71 106.36 510.33 109.31 512.83 85.31 510.31 57.28 534.21 46.93 482.19 49.55"/><polygon class="cls-16" points="470.78 87.92 450.11 77.23 429.83 96.79 450.29 70.6 475.94 83.68 470.78 87.92"/><polygon class="cls-7" points="682.14 185.01 802.1 163.08 802.1 66.05 682.14 80.58 682.14 185.01"/><polyline class="cls-6" points="682.14 80.58 682.14 185.01 621.28 134.06 620.82 48.06"/><polygon class="cls-12" points="608.62 20.53 620.82 48.06 750.13 29.55 740.85 0 608.62 20.53"/><polygon class="cls-12" points="573.81 39.14 619.48 71.73 682.14 80.58 620.82 48.06 573.81 39.14"/><polygon class="cls-12" points="802.1 66.05 827.33 37.61 771.91 5.15 750.13 29.55 802.1 66.05"/><polygon class="cls-5" points="620.82 48.06 682.14 80.58 802.1 66.05 750.13 29.55 620.82 48.06"/><polygon class="cls-9" points="682.14 80.58 689.9 46.47 813.85 37.34 802.1 66.05 682.14 80.58"/><rect class="cls-2" x="896.79" y="33.92" width="83.42" height="149.93"/><polygon class="cls-13" points="896.78 183.84 870.11 183.85 870.14 33.91 896.8 33.91 896.78 183.84"/><polygon class="cls-15" points="980.23 33.93 967.68 15.18 886.3 15.17 896.8 33.91 980.23 33.93"/><polygon class="cls-13" points="870.14 33.91 883.24 15.17 886.3 15.17 896.8 33.91 870.14 33.91"/><rect class="cls-2" x="883.24" y="4.47" width="84.44" height="10.71"/><polygon class="cls-14" points="904.21 160.98 972.79 161 972.81 48.71 904.22 48.71 904.21 160.98"/><polygon class="cls-10" points="904.22 92.72 972.8 92.73 972.81 48.71 904.22 48.71 904.22 92.72"/></g></g></svg>