<?xml version="1.0" encoding="UTF-8"?><svg id="Layer_1" xmlns="http://www.w3.org/2000/svg" viewBox="0 0 987.37 249.07"><defs><style>.cls-1{fill:#ef8f03;}.cls-2{fill:#700335;}.cls-3{fill:#f0c888;}.cls-4{fill:#d4b8ab;}.cls-5{fill:#60a833;}.cls-6{fill:#6b6a3c;}.cls-7{fill:#c06e14;}.cls-8{fill:#c91313;}.cls-9{fill:#b64708;}.cls-10{fill:#cc3c6f;}.cls-11{fill:#7f4019;}.cls-12{fill:#771759;}.cls-13{fill:#3d7932;}</style></defs><path class="cls-3" d="m.05,87.51s39.31,16.33,42.99,30.75c3.68,14.42.14,28.38.14,28.38,0,0,12.95,10.26,10.41,18.53-2.54,8.27-14.89,13.49-13.82,23.8,1.09,10.33-15.8,37.76-15.8,37.76,0,0,32.02,6.03,65.02-.33,33-6.35,53.07-16.78,50.99-18.83-2.08-2.06-22.25-13.3-23.33-21.55-1.08-8.26.36-30.45.36-30.45,0,0-17.61-14.36-18.18-25.71-.57-11.35,28.62-55.36,28.62-55.36,0,0-51.61-.26-66.06.32C46.96,75.41.05,87.51.05,87.51Z"/><path class="cls-8" d="m.05,87.51s22.75-4.11,36.33.85c13.57,4.97,19.04,14.62,27.89,5.47,8.85-9.14,13.3-12.44,19.69-11.31,6.39,1.13,33.67.47,43.5-8.02-10.11-9.18-43.21-11.33-54.98-6.82-11.79,4.5-24.19-.27-41.99,2.53C16.73,72.37-1.07,77.59.05,87.51Z"/><path class="cls-8" d="m20.36,227.52s12.32-12.96,28.06-12c15.75.94,23.78,8.91,36.94,7.29,13.13-1.62,37.52-23.35,48.39-19.56,10.88,3.79,11.42,9.47,11.42,9.47,0,0-21.84,19.2-67.5,22.52-45.65,3.33-57.31-7.71-57.31-7.71Z"/><path class="cls-2" d="m61.02,73.02s-2.35-14.23-.56-32.39c2.1-21.11,14.54-34,14.54-34l10.63,8.98s-13.62,10.65-18.14,24.21c-4.78,14.4-3.79,33.17-3.79,33.17l-2.68.02Z"/><path class="cls-12" d="m85.66,151.83s-3.1,21.03,5.61,18.89c8.7-2.14-5.61-18.89-5.61-18.89Z"/><path class="cls-12" d="m67.1,138.28s10.63,18.43,1.74,19.63c-8.87,1.21-1.74-19.63-1.74-19.63Z"/><path class="cls-1" d="m325.89,8.67l24.89,5.92s-2.68,12.56-.35,31.8c2.33,19.23,17.53,27.27,32.71,57.79,15.18,30.51,8.34,72.3-27.29,89.56-35.64,17.26-61.47,23.66-60.63,44.88-14.45-27.6,10.29-44.57,31.51-57.79,21.22-13.23,25.34-61.7,25.34-61.7,0,0-12.2,42.13-56.89,50.69-44.69,8.56-101.1,8.6-103.18,40.65-10.82-52.48,25.24-63.04,51.71-70.15,26.46-7.11,69.09-15.92,80.13-30.51,11.03-14.59-29.71,9-49.89,9.02-14.38,0-38.22-18.38-57.11-10.69-18.89,7.69-43.55,25.99-43.55,25.99,0,0,5.48-43.98,57.24-55.43,51.77-11.45,73.25,16.5,85.12,10.75,11.87-5.75,22.58-23.42,19.94-28.77-2.63-5.35-27.22-25.16-9.72-52.01Z"/><path class="cls-11" d="m349.78,39.35c-1.02-15.19,1.01-24.76,1.01-24.76l-24.89-5.92c-5.55,8.51-6.85,16.3-5.98,23.17,10.3,4.01,21.4,6.27,29.86,7.51Z"/><path class="cls-7" d="m307.85,134.84c-2.41-5.93-11.6-2.18-9.18,3.74s11.6,2.18,9.18-3.74Z"/><path class="cls-7" d="m289.77,141.74c-1.47-3.62-7.08-1.33-5.61,2.28s7.08,1.33,5.61-2.28Z"/><path class="cls-7" d="m263.64,145.97c-2.15-5.28-10.34-1.95-8.19,3.33,2.15,5.28,10.34,1.95,8.19-3.33Z"/><path class="cls-7" d="m242.55,161.67c.97-2.31-1.34-4.25-3.51-3.56-.34.1-.62.29-.92.47-.6.37-1.03,1.39-.87,2.07.08.34.14.67.29.98,1.03,2.05,4.04,2.34,5,.03Z"/><path class="cls-7" d="m379.74,138.46c.53-2.78-.16-8.03-2.16-10.15-1.58-1.69-4.38-2.1-5.91,0-1.93,2.66-1.26,6.31-.65,9.34.43,2.09,1.36,5.58,4,5.96,2.63.37,4.31-3.11,4.71-5.15Z"/><path class="cls-7" d="m369.13,153.02c-.05-.14-.1-.28-.15-.42-.7-1.99-4.07-1.67-4.19.51,0,.14-.02.3-.02.44-.05.93.34,2.13,1.37,2.42.66.18,1.08.21,1.74,0,1.23-.38,1.63-1.87,1.25-2.96Z"/><path class="cls-7" d="m365.41,179.66c2.41-1.94,3.32-4.78,2.26-7.72-.81-2.23-3.23-2.82-5.28-2.22-2,.58-3.63,2.4-4.23,4.36-1.29,4.23,3.25,8.79,7.25,5.58Z"/><path class="cls-7" d="m343.14,189.28c-.53-1.3-2.65-1.82-3.48-.47-.88,1.44-.32,2.81,1.14,3.19,1.71.44,2.87-1.42,2.34-2.72Z"/><path class="cls-7" d="m267.97,93.15c1.31-1.43.67-3.65-.63-4.78-3.02-2.63-8.37-1.2-10.81,1.54-.73.82-.42,2.11.36,2.75.3.29.65.53,1.03.71-.4-.43-.26-.29.43.42,1,.66,1.88,1.02,3.03,1.33,2.38.65,4.94-.2,6.58-1.98Z"/><path class="cls-7" d="m236.9,93.06c1.86-1.66-.28-4.67-2.32-3.11-1.99,1.53.53,4.7,2.32,3.11Z"/><path class="cls-7" d="m210.06,97.14c-1.65-4.04-7.91-1.49-6.26,2.55s7.91,1.49,6.26-2.55Z"/><path class="cls-5" d="m772.77,106.48c16.16.37-6.51,8.82-7.29,24.14-.78,15.32,19.28,37.89,6.23,43.34-13.06,5.45-14.61-13.64-19.26-5.9-4.63,7.74-3.58,31.48-13.66,31.33-10.08-.15,1.17-27.65-7.91-28.4-19.54-1.62-23.51,53.51-46.73,56.11-14.07,1.58,5.26-38.84,4.62-41.17-.63-2.33-20.92-20.68-10.97-26.4,9.94-5.73,33.6-1.56,37.82-13.1,4.22-11.54-7.22-23.17,6.01-26.04,13.23-2.87,25.35,8.07,29.11,4.42,3.75-3.66,10.31-18.58,22.02-18.32Z"/><path class="cls-13" d="m784.49,100.42c.52.1.97.45,1.18.98.34.83-.06,1.77-.89,2.11-.14.06-14.46,6.08-21.12,21.19-7.34,16.63-16.19,22.1-37.29,33.92-20.55,11.52-30.19,41.3-30.28,41.6-.27.85-1.18,1.3-2.03,1.05-.85-.27-1.32-1.18-1.05-2.03.4-1.27,10.11-31.3,31.78-43.45,21.34-11.96,29.06-16.89,35.91-32.4,7.21-16.34,22.23-22.62,22.86-22.88.31-.12.63-.15.93-.09Z"/><path class="cls-5" d="m635.73,184.49c-19.92-3.61-23.06-37.76-12.35-54.36,5.38-8.34,5.56-23.5,3.48-33.84-6.02-29.8,10.64-37.22,17.37-33.51,6.74,3.72,8.31-14.1,13.97-28.16,5.65-14.06,34.35-22.83,32.7-3.27-1.65,19.55-26.26,47.01-10.71,38.18,12.38-7.02,7.44,38.18-19.79,64.04-11.33,10.76.77,55.53-24.67,50.93Z"/><path class="cls-13" d="m641.15,202.75c-.16.77-.76,1.41-1.58,1.56-1.08.21-2.13-.5-2.34-1.58-.35-1.82-8.5-45.09,5.01-80,13.26-34.2,21.4-80.99,21.48-81.45.24-1.2,1.22-1.82,2.31-1.63,1.09.19,1.82,1.22,1.63,2.31-.09.48-8.29,47.66-21.69,82.22-13.1,33.81-4.9,77.36-4.82,77.8.05.26.05.53,0,.78Z"/><path class="cls-4" d="m490.01,69.93s14.22,42.41,23.73,66.06c9.5,23.66,23.32,53.59,27.16,53.61,3.86.02,43.27,16.13,35.48,31.99-7.79,15.85-21.67-2.05-32.29,2.71-10.62,4.76-11.25,30.76-21.81,23.49-10.55-7.29-3.64-39.04-6-48.2-2.36-9.16-32.28-88.32-32.28-88.32l6-41.34Z"/><path class="cls-9" d="m495.35,71.89c1.32-13.54,13.06-16.05,21.72-4.49,4.9-26.2-15.67-74.64-60.16-63.86-32.87,7.97-30.88,47.75-26.33,74.18,8.21-5.45,25.71.68,25.82,6.05.46,23.87,19.44,16,21.36,23.8,1.92,7.8,5.93,24.13,14.4,25.54,8.47,1.42,16.18,14.5,16.18,14.5,0,0-6.98-21.14-10.15-28.11-3.17-6.97-2.59-24.79.03-27.94,2.62-3.13-2.86-19.69-2.86-19.69Z"/><path class="cls-6" d="m983.61,35.48c-.52-.35-52.67-34.31-80.02-27.84-5.47,1.3-9.38,4.1-11.97,8.58-18.3,31.63-12.75,76.77-12.69,77.21l-6.8.88c-.25-1.94-5.88-47.91,13.56-81.52,3.54-6.12,9.03-10.09,16.32-11.82,30.22-7.15,83.13,27.3,85.37,28.78l-3.76,5.73Z"/><path class="cls-10" d="m876.09,99.85c-5.92,1.5-9.94,8.44-18.68,15.66-17.82,14.74-17.41,48.8-16.66,55.53,4.06,36.28,18.23,19.91,23.8-10.41,15.22,20.36,34.89,33.39,14.29-31.34,6.41,3.53,33.11,59.75,42.76,35.98,3.24-7.97-17.63-31.04-17.63-31.04,0,0,51.21,21.5,46.27,2.6-4.94-18.9-46.29-26.3-46.29-26.3l-27.87-10.68Z"/><path class="cls-6" d="m874.92,86.45c-15.77,3.44-12.73,27.38-35.03,25.09,24.03,15.49,33.82-10.74,33.82-10.74l3.51,17.39,7.95-14.86s17.17,15.84,36.22,1.22c-24.45-1.53-34.01-20.81-46.47-18.1Z"/><path class="cls-10" d="m910.33,182.25s6.17,27.23,23.51,30.3c17.34,3.07,29.41-6.07,22.55-8.53-6.86-2.45-18.67-.39-27.38-6.62-8.71-6.23-18.68-15.15-18.68-15.15Z"/><path class="cls-10" d="m882.72,194.26s-13.35,30.1-25.22,31.25c-11.86,1.16-15.08,28.05,10.05,14.72,25.14-13.33,15.17-45.97,15.17-45.97Z"/><path class="cls-10" d="m943,160.99s22.98,9.78,30.15,4.29c7.18-5.5,22.88,7.75,2.05,13.37-20.84,5.62-32.19-17.65-32.19-17.65Z"/></svg>