<svg width="196" height="190" viewBox="0 0 196 190" fill="none" xmlns="http://www.w3.org/2000/svg">
<g clip-path="url(#clip0_63_88)">
<path d="M76.9276 103.239C75.3226 100.41 72.8058 98.2066 69.7992 96.9843C66.9283 99.3158 63.2888 100.712 59.3101 100.712C55.3315 100.712 51.692 99.3158 48.821 96.9843C44.0814 98.9083 40.5548 103.307 39.8917 108.679L38.4751 120.472C38.2943 122.004 39.2814 123.452 40.7809 123.769C46.6132 125.014 52.8449 125.686 59.3026 125.686C61.7968 125.686 64.2533 125.588 66.6646 125.384L67.6442 117.258C68.3751 111.207 71.9468 106.106 76.9201 103.247L76.9276 103.239Z" fill="#1E9FDA"/>
<path d="M59.3026 71.565C52.4455 71.565 46.877 77.1333 46.877 84.0068C46.877 90.8804 52.438 96.4487 59.3026 96.4487C66.1673 96.4487 71.7283 90.8804 71.7283 84.0068C71.7283 77.1333 66.1673 71.565 59.3026 71.565Z" fill="#1E9FDA"/>
<path d="M142.65 108.679C142.01 103.307 138.483 98.9083 133.736 96.9843C130.865 99.3158 127.211 100.712 123.247 100.712C119.283 100.712 115.629 99.3158 112.758 96.9843C109.751 98.2066 107.242 100.41 105.637 103.239C110.618 106.099 114.19 111.199 114.905 117.25L115.885 125.376C118.296 125.58 120.753 125.678 123.247 125.678C129.705 125.678 135.936 125.007 141.769 123.762C143.268 123.445 144.255 121.996 144.074 120.465L142.65 108.672V108.679Z" fill="#1E9FDA"/>
<path d="M123.247 71.565C116.39 71.565 110.821 77.1333 110.821 84.0068C110.821 90.8804 116.382 96.4487 123.247 96.4487C130.112 96.4487 135.673 90.8804 135.673 84.0068C135.673 77.1333 130.112 71.565 123.247 71.565Z" fill="#1E9FDA"/>
<path d="M110.686 117.763C110.045 112.391 106.511 107.993 101.756 106.069C98.8854 108.4 95.2383 109.796 91.2672 109.796C87.2961 109.796 83.6566 108.4 80.7857 106.069C76.0384 107.993 72.5044 112.391 71.8564 117.763L70.4322 129.556C70.2514 131.088 71.2385 132.537 72.738 132.854C78.5854 134.099 84.802 134.77 91.2597 134.77C97.7174 134.77 103.949 134.099 109.781 132.854C111.288 132.537 112.276 131.088 112.087 129.556L110.671 117.763H110.686Z" fill="#1E9FDA"/>
<path d="M91.2748 80.6493C84.4177 80.6493 78.8491 86.2175 78.8491 93.0911C78.8491 99.9646 84.4102 105.533 91.2748 105.533C98.1394 105.533 103.7 99.9646 103.7 93.0911C103.7 86.2175 98.1394 80.6493 91.2748 80.6493Z" fill="#1E9FDA"/>
<path d="M151.685 153.791C127.128 182.198 85.6761 189.162 53.1237 170.345C48.4066 167.614 44.0136 164.437 39.9973 160.838L51.3152 164.098C53.7416 164.792 56.2659 163.396 56.9592 160.967C57.6524 158.545 56.2584 156.009 53.832 155.315L28.6717 148.08C27.2626 147.672 25.7405 147.974 24.5876 148.879C23.4347 149.792 22.7867 151.196 22.8545 152.667L23.9773 178.494C24.0828 180.946 26.1022 182.862 28.5361 182.862C28.6039 182.862 28.6717 182.862 28.7396 182.862C31.2563 182.749 33.208 180.621 33.1025 178.101L32.5976 166.429C37.4353 170.949 42.7702 174.917 48.5649 178.267C62.2565 186.182 77.3571 190.008 92.3373 190.008C117.098 190.008 141.505 179.535 158.595 159.774C160.245 157.866 160.034 154.983 158.128 153.331C156.221 151.679 153.343 151.882 151.693 153.799L151.685 153.791Z" fill="#1E3D72"/>
<path d="M195.284 110.89C193.928 108.762 191.11 108.136 188.985 109.494L179.144 115.772C180.628 109.321 181.397 102.704 181.397 96.0035C181.397 53.9925 151.534 17.7536 110.392 9.83877C107.905 9.36343 105.524 10.9856 105.049 13.4604C104.575 15.9352 106.195 18.3345 108.666 18.8099C145.521 25.9022 172.264 58.3611 172.264 95.996C172.264 101.451 171.706 106.853 170.606 112.135L167.765 100.689C167.155 98.2368 164.676 96.7505 162.234 97.3616C159.785 97.9728 158.301 100.448 158.904 102.9L165.226 128.334C165.58 129.76 166.597 130.93 167.961 131.473C168.504 131.692 169.084 131.797 169.657 131.797C170.516 131.797 171.367 131.556 172.106 131.081L193.883 117.19C196.008 115.832 196.633 113.01 195.277 110.882L195.284 110.89Z" fill="#1E3D72"/>
<path d="M48.3991 29.8633C53.1162 27.132 58.0669 24.9213 63.1833 23.2312L54.7061 31.4176C52.8901 33.168 52.8374 36.0653 54.5931 37.8761C55.4898 38.8042 56.6804 39.272 57.8785 39.272C59.0766 39.272 60.1617 38.8495 61.0433 37.9893L79.8815 19.7906C80.9364 18.772 81.4413 17.3007 81.2303 15.8445C81.0193 14.3883 80.1226 13.1283 78.819 12.4492L55.9193 0.512943C53.6813 -0.648998 50.931 0.218685 49.763 2.45957C48.6026 4.70046 49.4691 7.45441 51.7071 8.6239L62.0606 14.0186C55.7309 15.9577 49.6274 18.5985 43.8403 21.9485C7.50519 42.9464 -8.90664 86.9644 4.81509 126.599C5.47066 128.485 7.23392 129.669 9.12527 129.669C9.6226 129.669 10.1275 129.586 10.6173 129.413C12.9984 128.583 14.2568 125.98 13.4354 123.596C1.14541 88.0961 15.8467 48.6656 48.3991 29.8482V29.8633Z" fill="#1E3D72"/>
</g>
<defs>
<clipPath id="clip0_63_88">
<rect width="196" height="190" fill="white"/>
</clipPath>
</defs>
</svg>
