<?xml version="1.0" encoding="utf-8"?>
<!-- Generator: Adobe Illustrator 27.5.0, SVG Export Plug-In . SVG Version: 6.00 Build 0)  -->
<svg version="1.1" id="Layer_1" xmlns="http://www.w3.org/2000/svg" xmlns:xlink="http://www.w3.org/1999/xlink" x="0px" y="0px"
	 viewBox="0 0 1000 1000" style="enable-background:new 0 0 1000 1000;" xml:space="preserve">
<style type="text/css">
	.st0{fill:#CCEDEA;}
	.st1{fill:#BBDEE2;}
	.st2{fill:#4EADC5;}
	.st3{fill:#4E889C;}
	.st4{fill:#577E95;}
	.st5{fill:#CF4D43;}
	.st6{fill:#69A0B7;}
	.st7{fill:#90BFC9;}
	.st8{fill:#4B687E;}
	.st9{fill:#E57F68;}
	.st10{fill:#76A5B5;}
	.st11{fill:#6796A4;}
	.st12{fill:#F7931E;}
	.st13{fill:#534741;}
</style>
<g>
	<path class="st0" d="M350.3,315.7c-1.3-5.2-6-8.7-11.2-8.9c0,0-105.6-48.7-105.6-48.7l-35,7.1l-34.1,10.7l-69,93.6l1.4-0.2
		c-4.1,2.8-6.3,7.9-5,13l129.9,504.4c0.2,0.6,0.6,1.1,0.9,1.8c6.3,20.6,67.9,22.6,138.6,4.4c70.7-18.2,123.7-49.7,119.3-70.8
		c-0.1-0.7,0-1.3-0.1-2L350.3,315.7z"/>
	<path class="st1" d="M153.7,359.4c-1.4-5.6,0.7-11.1,4.8-14.1l-1.4,0.2l55.2-83l-13.8,2.8l-34.1,10.7l-69,93.6l1.4-0.2
		c-4.1,2.8-6.3,7.9-5,13l129.9,504.4c0.2,0.6,0.6,1.1,0.9,1.8c4.1,13.6,32.5,19,71.6,15.9L153.7,359.4z"/>
	<g>
		<path class="st1" d="M205.1,441.7l-2.3-8.7c-1-3.9-5-6.2-8.8-5.2l-84.9,21.9l5.8,22.7l85-21.9
			C203.8,449.5,206.1,445.6,205.1,441.7z"/>
		<path class="st1" d="M217.8,490.7l-2.3-8.7c-1-3.9-5-6.2-8.8-5.2l-85,21.9l5.9,22.7l84.9-21.9
			C216.4,498.5,218.8,494.6,217.8,490.7z"/>
		<path class="st1" d="M102.4,423.4l85-21.9c3.9-1,6.2-4.9,5.2-8.8l-2.3-8.7c-1-3.9-5-6.2-8.8-5.2l-85,21.9L102.4,423.4z"/>
		<path class="st1" d="M276.4,413.1l2.2,8.8c1,3.9,4.9,6.2,8.8,5.2l85.8-22.1l-5.9-22.7l-85.9,22.1
			C277.7,405.3,275.4,409.2,276.4,413.1z"/>
		<path class="st1" d="M380.1,431.2l-85.8,22.1c-3.9,1-6.2,4.9-5.2,8.8l2.3,8.7c1,3.9,5,6.2,8.8,5.2l85.8-22.1L380.1,431.2z"/>
		<path class="st1" d="M263.8,364.1l2.3,8.8c1,3.9,4.9,6.2,8.8,5.2l85.9-22.1l-5.9-22.8L269,355.3
			C265.1,356.3,262.8,360.3,263.8,364.1z"/>
	</g>
	<g>
		<path class="st1" d="M279.5,730.4l-2.2-8.8c-1-3.9-5-6.2-8.8-5.2l-84.9,21.9l5.9,22.7l85-21.9
			C278.1,738.2,280.5,734.3,279.5,730.4z"/>
		<path class="st1" d="M292.1,779.4l-2.3-8.7c-1-3.9-4.9-6.2-8.8-5.2l-85,21.9l5.9,22.7l85-21.9
			C290.8,787.2,293.1,783.2,292.1,779.4z"/>
		<path class="st1" d="M176.7,712.1l85-21.9c3.9-1,6.2-4.9,5.2-8.8l-2.3-8.8c-1-3.8-4.9-6.2-8.8-5.2l-85,21.9L176.7,712.1z"/>
		<path class="st1" d="M350.8,701.8l2.3,8.7c1,3.9,4.9,6.2,8.8,5.2l85.9-22.1l-5.8-22.7L355.9,693
			C352.1,694,349.8,697.9,350.8,701.8z"/>
		<path class="st1" d="M454.4,719.8L368.6,742c-3.9,1-6.2,4.9-5.2,8.8l2.3,8.7c1,3.9,4.9,6.2,8.8,5.2l85.8-22.1L454.4,719.8z"/>
		<path class="st1" d="M338.1,652.8l2.3,8.7c1,3.9,4.9,6.2,8.8,5.2l85.9-22.1l-5.9-22.7L343.3,644
			C339.5,645,337.2,648.9,338.1,652.8z"/>
	</g>
	<polygon class="st2" points="243.2,262.3 159.8,283.8 142.3,191.9 214.1,173.4 	"/>
	<path class="st3" d="M214.1,173.4l-71.7,18.5l2.7,14.4c24.2-6.2,49.1-12.6,73.6-18.9L214.1,173.4z"/>
</g>
<g>
	<path class="st4" d="M826.6,945.3c-4.4,19.1-55.2,23.7-113.5,10.3c-58.3-13.4-102.1-39.7-97.7-58.7c4.4-19,55.2-23.6,113.5-10.3
		C787.2,900,831,926.3,826.6,945.3z"/>
	<polygon class="st5" points="839.1,931.1 610.3,878.6 681.1,570.1 909.9,622.6 	"/>
	<path class="st5" d="M839.1,931.4c-4.7,20.6-59.8,25.6-123,11.1c-63.2-14.5-110.6-43-105.9-63.6c4.7-20.6,59.8-25.6,123-11.1
		C796.4,882.2,843.8,910.8,839.1,931.4z"/>
	<path class="st5" d="M909.9,622.6c-4.8,20.6-59.8,25.6-123,11.1c-63.2-14.5-110.6-43-105.8-63.6c4.7-20.7,59.8-25.6,123-11.1
		C867.3,573.5,914.6,602,909.9,622.6z"/>
	<path class="st4" d="M903.5,609.9c-4.3,19-55.1,23.6-113.4,10.3c-58.3-13.4-102-39.7-97.7-58.7c4.4-19,55.2-23.6,113.5-10.2
		C864.2,564.6,907.8,590.9,903.5,609.9z"/>
	<g>
		<path class="st6" d="M894.4,594c-3.9,16.9-48.8,20.9-100.4,9.1c-51.6-11.8-90.3-35.1-86.5-51.9c3.9-16.9,48.9-20.9,100.4-9.1
			C859.6,553.9,898.2,577.1,894.4,594z"/>
		<path class="st7" d="M892.2,604.4c-15,11.9-54.8,13.1-99.2,2.9c-25.4-5.8-48.6-14.5-65.3-24.6c-18.3-11-26.7-22.2-24.4-32.5
			c0.8-3.6,2.9-6.8,6.3-9.4c15-11.9,54.8-13,99.3-2.9c47.3,10.9,94.8,34.6,89.6,57.1C897.7,598.5,895.6,601.7,892.2,604.4z
			 M714.9,547.5c-1.8,1.4-2.9,3-3.3,4.7c-1.4,6,6.3,14.7,20.5,23.2c16,9.6,38.3,18,62.8,23.6c53.8,12.4,92.7,5.7,95.3-5.9
			c2.9-12.5-30.6-34.8-83.2-46.9C760.9,535.7,725.8,538.8,714.9,547.5z"/>
	</g>
	<path class="st8" d="M790.1,578.5c-1,4.4-14,5.2-29,1.8c-15-3.4-26.3-9.8-25.3-14.2c1-4.4,14-5.2,29-1.7
		C779.8,567.7,791.1,574.1,790.1,578.5z"/>
	<path class="st9" d="M890,709.1c-7.1-12.6-17.1-21.3-29.3-24.1c-33.3-7.6-70.6,31-83.3,86.4c-12.7,55.3,4,106.4,37.3,114
		c12.2,2.8,25-0.7,36.9-8.9L890,709.1z"/>
</g>
<g>
	<path class="st10" d="M798.6,370.1c11.6,13.7-17.2,56.9-64.3,96.5c-47.1,39.6-94.6,60.6-106.1,46.9c-11.6-13.7,17.3-57,64.3-96.6
		C739.5,377.3,787,356.3,798.6,370.1z"/>
	<polygon class="st10" points="798.6,370.1 628.2,513.5 440.8,290.9 611.2,147.4 	"/>
	<path class="st8" d="M611.2,147.4c7.8,9.3-24,49-71,88.6c-47.1,39.6-91.6,64.2-99.4,54.8c-7.8-9.3,24-49,71-88.6
		C558.9,162.7,603.4,138.1,611.2,147.4z"/>
	<path class="st10" d="M527.6,176.2c-27.6,52.2-83,77.1-123.7,55.6c-40.7-21.5-51.3-81.3-23.7-133.4c27.6-52.2,82.9-77.1,123.6-55.6
		C544.5,64.2,555.1,124,527.6,176.2z"/>
	<g>
		<path class="st11" d="M451,219.6c-13.5,2.4-26.5,0.5-37.8-5.4c-16.4-8.7-27.4-24.9-31.1-45.7c-3.6-20.5,0.3-43,11.1-63.3
			c14.2-27,38-45.8,63.6-50.3c13.4-2.4,26.5-0.5,37.8,5.4C510.9,69,522,85.2,525.6,106c3.6,20.5-0.3,43-11.1,63.3
			C500.3,196.3,476.6,215.1,451,219.6z M458.1,62.2c-23,4.1-45.3,21.9-58.3,46.5c-10,18.9-13.7,39.7-10.3,58.6
			c3.3,18.5,13,32.9,27.3,40.4c9.8,5.2,21.2,6.8,33,4.7c23-4.1,45.4-21.9,58.3-46.5c10-18.9,13.7-39.8,10.3-58.6
			c-3.3-18.5-13-32.9-27.3-40.4C481.3,61.7,469.9,60.1,458.1,62.2z"/>
	</g>
	<g>
		<path class="st11" d="M452.2,192.4c-9.1,1.6-17.9,0.3-25.5-3.7c-11.1-5.8-18.5-16.8-21-30.8c-2.4-13.7,0.2-28.7,7.4-42.3
			c9.5-18,25.4-30.5,42.5-33.6c9.1-1.6,17.9-0.3,25.5,3.7c22.5,11.9,28.6,44.7,13.6,73C485.2,176.8,469.3,189.4,452.2,192.4z
			 M456.8,89.4c-14.7,2.6-28.9,14-37.3,29.7c-6.4,12.1-8.8,25.5-6.6,37.5c2.1,11.7,8.2,20.8,17.2,25.5c6.2,3.3,13.3,4.3,20.8,2.9
			c14.7-2.6,28.9-14,37.3-29.7c13.1-24.8,8.3-53.1-10.6-63C471.5,89.1,464.3,88.1,456.8,89.4z"/>
	</g>
	<g>
		<path class="st11" d="M453.4,165.7c-4.8,0.9-9.5,0.2-13.5-2c-11.8-6.2-15.1-23.2-7.4-37.8c4.9-9.2,13-15.6,21.8-17.2
			c4.8-0.9,9.5-0.2,13.5,2c4.9,2.6,8.5,7.1,10.3,12.9c2.4,7.7,1.3,16.8-3,24.8C470.4,157.7,462.2,164.1,453.4,165.7z M455.6,116.1
			c-6.5,1.2-12.8,6.3-16.6,13.3c-5.8,11-3.9,23.4,4.3,27.8c7.9,4.2,19.8-1.6,25.4-12.1c3.4-6.4,4.2-13.3,2.4-19.2
			c-1.2-3.9-3.5-6.9-6.7-8.6C461.8,116,458.8,115.5,455.6,116.1z"/>
	</g>
	<g>
		<path class="st7" d="M450.8,297.3c-6.4,1.1-11,0-13.8-3.3c-5.8-6.9-1.1-19.3,14.8-39.2c13.6-17,33.8-37,56.8-56.3
			c37.6-31.6,73.9-54.2,92.5-57.5c6.4-1.1,11,0,13.8,3.3c5.8,6.9,1.1,19.3-14.8,39.2c-13.6,17-33.8,37-56.8,56.3
			C505.8,271.4,469.4,294,450.8,297.3z M444.6,287.7c0.1,0,1.2,0.5,4.5-0.1c16.5-2.9,52.7-25.7,87.9-55.4
			c51-42.9,72.9-75.9,70.4-81.7c-0.1,0-1.2-0.5-4.5,0.1c-16.5,2.9-52.7,25.7-87.9,55.4C464,248.9,442.1,282,444.6,287.7z"/>
	</g>
	<path class="st12" d="M575.5,277.9c-47.1,39.6-91.8,63.9-100,54.2l137.7,163.7c10,11.9,56.3-10.5,103.4-50.1
		c47.1-39.6,77.1-81.4,67-93.3L645.9,188.7C654.1,198.4,622.5,238.3,575.5,277.9z"/>
	<path class="st13" d="M681.4,311.9c22.3,26.6,20.2,65.2-4.8,86.2c-25,21-63.4,16.6-85.8-10c-22.4-26.6-20.2-65.2,4.8-86.2
		C620.6,280.8,659,285.3,681.4,311.9z"/>
	<path class="st13" d="M692.5,416.9c-47.1,39.6-93.4,62-103.4,50.1l24.2,28.7c10,11.9,56.3-10.5,103.4-50.1
		c47.1-39.6,77.1-81.4,67-93.3l-24.2-28.7C769.5,335.6,739.5,377.3,692.5,416.9z"/>
</g>
</svg>
