<?xml version="1.0" encoding="UTF-8"?><svg xmlns="http://www.w3.org/2000/svg" viewBox="0 0 949.71 261.08"><defs><style>.cls-1{fill:#90bfc9;}.cls-2{fill:#6796a4;}.cls-3{fill:#d8d8d8;}.cls-4{fill:#4e889c;}.cls-5{fill:#e57f68;}.cls-6{fill:#69a0b7;}.cls-7{fill:#aad4e5;}.cls-8{isolation:isolate;}.cls-9{fill:#534741;}.cls-10{fill:#f7931e;}.cls-11{fill:#49a549;}.cls-12{fill:#4b687e;}.cls-13{fill:#ccedea;}.cls-14{fill:#bbdee2;}.cls-15{fill:#93c7da;mix-blend-mode:multiply;opacity:.3;}.cls-16{fill:#cf4d43;}.cls-17{fill:#4eadc5;}.cls-18{fill:#76a5b5;}.cls-19{fill:#577e95;}.cls-20{fill:#b6dcea;}</style></defs><g class="cls-8"><g id="Layer_1"><path class="cls-13" d="m88.35,58.34c-.45-1.77-2.04-2.95-3.81-3.04.02,0-36.03-16.61-36.03-16.61l-11.95,2.44-11.64,3.65L1.38,76.71l.46-.07c-1.41.96-2.16,2.7-1.72,4.43l44.33,172.11c.06.22.19.38.29.6,2.14,7.02,23.18,7.7,47.27,1.49,24.12-6.2,42.21-16.97,40.69-24.14-.03-.23.01-.45-.04-.68L88.35,58.34Z"/><path class="cls-14" d="m21.27,73.24c-.49-1.9.22-3.79,1.62-4.81l-.46.06,18.83-28.33-4.7.96-11.64,3.65L1.38,76.71l.46-.07c-1.41.96-2.16,2.7-1.72,4.43l44.33,172.11c.06.22.19.38.29.6,1.41,4.63,11.09,6.48,24.42,5.43L21.27,73.24Z"/><path class="cls-14" d="m38.81,101.34l-.77-2.98c-.34-1.33-1.69-2.11-3.01-1.78l-28.98,7.47,1.99,7.76,28.99-7.47c1.32-.34,2.11-1.69,1.78-3Z"/><path class="cls-14" d="m43.12,118.05l-.77-2.98c-.34-1.32-1.69-2.11-3.01-1.77l-28.99,7.46,2,7.76,28.98-7.47c1.32-.34,2.12-1.68,1.78-3Z"/><path class="cls-14" d="m3.74,95.1l28.99-7.47c1.31-.34,2.11-1.69,1.78-3l-.77-2.98c-.34-1.32-1.69-2.11-3.01-1.78l-28.99,7.46,2.01,7.77Z"/><path class="cls-14" d="m63.14,91.57l.77,2.99c.34,1.31,1.68,2.11,3,1.77l29.29-7.55-2-7.76-29.29,7.54c-1.32.34-2.09,1.69-1.76,3Z"/><path class="cls-14" d="m98.5,97.73l-29.29,7.55c-1.32.34-2.11,1.68-1.77,3.01l.77,2.98c.34,1.32,1.69,2.11,3.01,1.77l29.29-7.54-2-7.76Z"/><path class="cls-14" d="m58.82,74.86l.77,2.99c.34,1.32,1.68,2.11,2.99,1.77l29.29-7.54-2-7.76-29.29,7.54c-1.32.34-2.1,1.7-1.77,3.01Z"/><path class="cls-14" d="m64.18,199.83l-.77-2.99c-.35-1.32-1.7-2.11-3.02-1.77l-28.98,7.47,2,7.76,28.99-7.47c1.32-.34,2.12-1.68,1.78-3Z"/><path class="cls-14" d="m68.48,216.54l-.77-2.98c-.34-1.31-1.69-2.11-3-1.77l-29,7.47,2,7.76,29-7.47c1.32-.34,2.11-1.69,1.77-3.01Z"/><path class="cls-14" d="m29.11,193.59l28.99-7.46c1.32-.34,2.12-1.69,1.78-3.01l-.77-2.99c-.34-1.31-1.69-2.1-3-1.77l-29,7.47,2,7.76Z"/><path class="cls-14" d="m88.51,190.07l.77,2.98c.34,1.32,1.67,2.11,2.99,1.78l29.29-7.55-1.99-7.75-29.3,7.54c-1.32.34-2.11,1.69-1.76,3.01Z"/><path class="cls-14" d="m123.86,196.23l-29.29,7.54c-1.32.34-2.11,1.68-1.77,3l.77,2.98c.34,1.32,1.68,2.12,3,1.78l29.29-7.54-2-7.76Z"/><path class="cls-14" d="m84.19,173.35l.77,2.98c.34,1.32,1.67,2.12,3,1.78l29.3-7.55-2-7.76-29.29,7.55c-1.31.34-2.11,1.68-1.77,3Z"/><polygon class="cls-17" points="51.78 40.13 23.34 47.46 17.38 16.1 41.85 9.8 51.78 40.13"/><path class="cls-4" d="m41.85,9.8l-24.47,6.3.93,4.91c8.25-2.13,16.74-4.3,25.1-6.46l-1.56-4.75Z"/><path class="cls-18" d="m523.48,240.07c-.57,8.6-24.95,13.98-54.44,12.02-29.51-1.96-52.96-10.53-52.38-19.12.57-8.6,24.95-13.98,54.45-12.02,29.49,1.96,52.95,10.53,52.37,19.12Z"/><rect class="cls-18" x="404.78" y="113.21" width="139.86" height="107.07" transform="translate(276.84 629.34) rotate(-86.2)"/><path class="cls-12" d="m532.77,100.52c-.39,5.84-24.62,8.98-54.11,7.02-29.51-1.97-53.11-8.29-52.72-14.13.39-5.84,24.62-8.99,54.12-7.02,29.49,1.96,53.1,8.29,52.71,14.13Z"/><path class="cls-18" d="m494.2,82.6c-26.95,8.88-54.42-.95-61.35-21.96-6.93-21.01,9.32-45.25,36.26-54.13,26.95-8.88,54.41.94,61.34,21.95,6.93,21-9.31,45.25-36.25,54.14Z"/><path class="cls-2" d="m453.2,72.12c-5.46-3.66-9.35-8.66-11.27-14.47-2.79-8.45-1.21-17.75,4.44-26.18,5.56-8.3,14.42-14.78,24.95-18.25,13.92-4.59,28.41-3.19,38.78,3.76,5.45,3.65,9.35,8.66,11.27,14.47,2.78,8.45,1.21,17.75-4.44,26.19-5.56,8.3-14.42,14.78-24.95,18.25-13.91,4.59-28.41,3.18-38.78-3.77Zm54.92-52.19c-9.32-6.25-23-7.53-35.69-3.34-9.78,3.22-17.98,9.21-23.1,16.85-5.03,7.51-6.46,15.7-4.02,23.09,1.67,5.05,5.08,9.42,9.88,12.63,9.33,6.25,23,7.53,35.69,3.35,9.78-3.22,17.99-9.21,23.11-16.85,5.02-7.51,6.45-15.71,4.02-23.09-1.67-5.05-5.08-9.42-9.88-12.63Z"/><path class="cls-2" d="m462.69,63.1c-3.69-2.47-6.32-5.85-7.62-9.79-1.89-5.71-.83-11.98,2.98-17.66s9.62-9.87,16.65-12.19c9.28-3.06,18.97-2.11,25.9,2.54,3.69,2.47,6.32,5.85,7.62,9.79,3.83,11.63-4.96,25.02-19.61,29.85-9.28,3.06-18.97,2.11-25.91-2.54Zm35.93-34.14c-5.94-3.98-14.69-4.79-22.81-2.12-6.27,2.07-11.53,5.9-14.81,10.79-3.18,4.75-4.09,9.92-2.55,14.57,1.05,3.18,3.2,5.92,6.22,7.95,5.95,3.98,14.69,4.8,22.82,2.12,12.78-4.22,20.57-15.6,17.35-25.36-1.05-3.18-3.2-5.92-6.22-7.95Z"/><path class="cls-2" d="m472,54.25c-1.94-1.3-3.34-3.1-4.02-5.19-2-6.08,2.49-13.05,10.03-15.54,4.74-1.56,9.71-1.07,13.28,1.33,1.95,1.31,3.34,3.1,4.03,5.2.83,2.51.58,5.32-.72,7.91-1.74,3.46-5.13,6.24-9.31,7.62-4.74,1.56-9.71,1.06-13.28-1.33Zm17.3-16.44c-2.63-1.76-6.53-2.11-10.19-.91-5.67,1.87-9.15,6.83-7.76,11.05,1.34,4.07,7.39,6.04,12.82,4.26,3.28-1.08,5.92-3.21,7.24-5.84.89-1.76,1.07-3.56.53-5.2-.44-1.34-1.35-2.5-2.63-3.36Z"/><path class="cls-1" d="m427.25,99c-2.58-1.73-3.83-3.66-3.69-5.74.28-4.32,6.07-7.06,18.2-8.63,10.37-1.35,24.02-1.56,38.44-.6,23.57,1.57,43.68,5.85,51.23,10.91,2.59,1.73,3.83,3.67,3.69,5.75-.29,4.31-6.07,7.06-18.2,8.63-10.37,1.35-24.02,1.56-38.44.6-23.58-1.57-43.7-5.85-51.24-10.91Zm1.04-5.39s.28.57,1.6,1.45c6.69,4.48,26.81,8.64,48.91,10.11,31.94,2.13,50.55-2.02,51.6-4.85-.04-.03-.28-.57-1.6-1.46-6.69-4.48-26.8-8.64-48.9-10.11-31.96-2.13-50.57,2.02-51.6,4.85Z"/><path class="cls-10" d="m476.9,133.81c-29.5-1.96-53.09-8.47-52.69-14.54l-6.82,102.59c-.5,7.47,23.02,15.13,52.52,17.09,29.5,1.96,53.82-2.5,54.31-9.98l6.82-102.59c-.4,6.07-24.65,9.4-54.14,7.44Z"/><path class="cls-9" d="m502.28,180.86c-1.11,16.65-14.71,29.31-30.39,28.27-15.67-1.04-27.49-15.39-26.38-32.05,1.11-16.65,14.72-29.31,30.39-28.27,15.68,1.04,27.49,15.39,26.38,32.05Z"/><path class="cls-9" d="m471.11,220.95c-29.5-1.96-53.01-9.61-52.52-17.09l-1.2,18.01c-.5,7.47,23.02,15.13,52.52,17.09,29.5,1.96,53.82-2.5,54.31-9.98l1.2-18c-.5,7.48-24.82,11.94-54.31,9.98Z"/><path class="cls-19" d="m298.95,239.64c-2.19,9.54-27.61,11.84-56.77,5.15-29.17-6.69-51.05-19.85-48.86-29.38,2.18-9.51,27.61-11.81,56.77-5.13,29.16,6.7,51.05,19.85,48.86,29.36Z"/><polygon class="cls-16" points="305.22 232.53 190.77 206.27 226.18 51.98 340.64 78.22 305.22 232.53"/><path class="cls-16" d="m305.19,232.68c-2.37,10.33-29.9,12.82-61.5,5.56-31.61-7.24-55.33-21.5-52.95-31.81,2.37-10.32,29.92-12.82,61.51-5.57,31.6,7.24,55.31,21.5,52.94,31.82Z"/><path class="cls-16" d="m340.64,78.22c-2.38,10.31-29.92,12.82-61.53,5.56-31.6-7.24-55.29-21.51-52.92-31.81,2.35-10.33,29.9-12.81,61.5-5.57,31.6,7.26,55.3,21.5,52.95,31.82Z"/><path class="cls-19" d="m337.4,71.88c-2.17,9.53-27.58,11.83-56.73,5.14-29.16-6.68-51.04-19.84-48.85-29.35,2.18-9.53,27.6-11.82,56.76-5.12,29.16,6.68,51.01,19.82,48.82,29.34Z"/><path class="cls-6" d="m332.85,63.93c-1.93,8.43-24.42,10.47-50.22,4.54-25.82-5.91-45.18-17.56-43.24-25.98,1.94-8.44,24.44-10.45,50.24-4.55,25.82,5.94,45.17,17.54,43.23,25.99Z"/><path class="cls-1" d="m331.78,69.12c-7.49,5.95-27.43,6.53-49.63,1.43-12.69-2.9-24.29-7.27-32.65-12.29-9.15-5.5-13.37-11.12-12.19-16.24.41-1.79,1.47-3.38,3.15-4.71,7.48-5.95,27.43-6.52,49.64-1.44,23.66,5.44,47.41,17.29,44.83,28.54-.41,1.79-1.47,3.38-3.15,4.71Zm-88.68-28.47c-.9.72-1.45,1.5-1.65,2.33-.69,3.01,3.14,7.36,10.23,11.63,7.99,4.8,19.14,8.99,31.4,11.79,26.89,6.18,46.36,2.88,47.67-2.94,1.43-6.23-15.32-17.38-41.63-23.43-23.07-5.27-40.62-3.68-46.04.63Z"/><path class="cls-12" d="m280.7,56.16c-.5,2.21-7,2.6-14.51.88-7.51-1.72-13.17-4.9-12.67-7.11.51-2.21,6.99-2.59,14.5-.87,7.51,1.72,13.19,4.91,12.68,7.1Z"/><path class="cls-5" d="m330.69,121.5c-3.56-6.31-8.54-10.65-14.64-12.06-16.64-3.82-35.29,15.52-41.64,43.19-6.34,27.66,2.02,53.19,18.65,57.01,6.11,1.41,12.49-.35,18.44-4.44l19.2-83.71Z"/><path class="cls-19" d="m658.44,253.97c3.23,10.67,26.42,9.17,51.78-3.32,25.37-12.5,43.34-31.27,40.11-41.94-3.22-10.64-26.41-9.14-51.78,3.35-25.37,12.5-43.34,31.27-40.11,41.91Z"/><polygon class="cls-11" points="651.86 246.78 751.42 197.74 699.19 25.2 599.62 74.24 651.86 246.78"/><path class="cls-11" d="m651.91,246.94c3.5,11.55,28.61,9.93,56.1-3.62,27.5-13.54,46.97-33.89,43.47-45.41-3.49-11.54-28.62-9.93-56.11,3.61-27.49,13.53-46.95,33.89-43.45,45.42Z"/><path class="cls-11" d="m599.62,74.24c3.51,11.53,28.62,9.93,56.13-3.62,27.49-13.53,46.94-33.89,43.44-45.41-3.48-11.56-28.6-9.92-56.1,3.61-27.49,13.55-46.94,33.88-43.47,45.42Z"/><path class="cls-19" d="m601.69,66.38c3.21,10.66,26.39,9.16,51.75-3.33,25.37-12.49,43.33-31.27,40.11-41.91-3.22-10.65-26.4-9.15-51.77,3.35-25.37,12.49-43.31,31.23-40.08,41.88Z"/><path class="cls-6" d="m604.74,56.45c2.85,9.43,23.36,8.11,45.81-2.96,22.46-11.04,38.35-27.67,35.5-37.08-2.86-9.44-23.38-8.09-45.83,2.95-22.46,11.08-38.35,27.65-35.49,37.09Z"/><path class="cls-1" d="m602.93,57.34c-3.8-12.58,16.01-30.16,36.59-40.31,19.33-9.5,37.36-12.09,44.88-6.44,1.68,1.27,2.85,2.92,3.46,4.93,1.73,5.73-1.32,12.9-8.84,20.76-6.86,7.17-16.73,14.11-27.77,19.54-19.31,9.52-37.34,12.11-44.87,6.45-1.68-1.27-2.85-2.93-3.45-4.93Zm38-35.66c-22.88,11.29-36.49,26.92-34.38,33.88,1.95,6.5,19.91,7.14,43.31-4.39,10.67-5.25,20.16-11.91,26.72-18.76,5.83-6.09,8.7-11.74,7.68-15.11-.28-.93-.88-1.74-1.79-2.42-5.44-4.09-21.45-3.07-41.53,6.8Z"/><path class="cls-12" d="m650.66,38.95c.75,2.47,6.65,1.86,13.18-1.35,6.53-3.21,11.21-7.82,10.47-10.29-.75-2.47-6.64-1.85-13.17,1.36-6.53,3.22-11.23,7.83-10.48,10.28Z"/><ellipse class="cls-3" cx="675.07" cy="128.29" rx="40.26" ry="25.84" transform="translate(24.26 348.8) rotate(-29.48)"/><rect class="cls-20" x="828.35" y="148.42" width="116.49" height="74.47" transform="translate(458.31 983.84) rotate(-73.61)"/><path class="cls-7" d="m905.89,252.05c-1.68,5.7-19.03,5.62-38.76-.19s-34.36-15.13-32.69-20.83,19.03-5.63,38.76.17c19.73,5.8,34.37,15.13,32.69,20.84Z"/><polygon class="cls-20" points="945.54 19.6 927.09 14.17 867.31 119.27 938.89 140.33 945.54 19.6"/><rect class="cls-17" x="931.04" y=".21" width="14.79" height="19.17" transform="translate(664.23 907.33) rotate(-73.61)"/><path class="cls-17" d="m914.74,221.94l18.37-62.45c-1.84,2.49-18.03.15-37.1-5.46l-18.54,62.93c19.73,5.8,36.42,8.13,37.29,5.2.02-.07-.01-.15,0-.22Z"/><path class="cls-15" d="m927.09,14.17l-59.78,105.1-32.87,111.76c-1.23,4.17,6.3,10.28,18.15,15.54l32.16-121.53,48.52-109.05-6.17-1.81Z"/></g></g></svg>