<?xml version="1.0" encoding="UTF-8"?><svg id="Layer_1" xmlns="http://www.w3.org/2000/svg" viewBox="0 0 1026.49 219.75"><defs><style>.cls-1{fill:#af464e;}.cls-2{fill:#db6300;}.cls-3{fill:#fff;}.cls-4{fill:#a5d2dc;}.cls-5{fill:#f9c375;}.cls-6{fill:#8ab8d1;}.cls-7{fill:#fff6b8;}.cls-8{fill:#fcb560;}.cls-9{fill:#63bb7a;}.cls-10{fill:#4c3b3b;}.cls-11{fill:#c7ebea;}.cls-12{fill:#ffb140;}.cls-13{fill:#893d3d;}.cls-14{fill:#ddd6ac;}.cls-15{fill:#dcf3ef;}.cls-16{fill:#b4e1e3;}.cls-17{fill:#d1aa8f;}.cls-18{fill:#ddd392;}.cls-19{fill:#99c6d1;}.cls-20{fill:#e87581;}.cls-21{fill:#d8cd8d;}</style></defs><path class="cls-11" d="m29.08,94.24c-11.19,2.36-23.62-11.61-27.74-31.2C-2.78,43.45,2.94,25.65,14.12,23.3c11.19-2.36,23.61,11.61,27.75,31.2,4.13,19.58-1.6,37.39-12.79,39.74Z"/><path class="cls-19" d="m33.4,60.64c2.08,9.85,1.77,19.15-.37,26.15,4.67-6.42,6.42-17.74,3.85-29.9-3.64-17.28-14.59-29.59-24.46-27.51-.65.13-1.27.33-1.87.58,9.26.22,19.17,13.18,22.85,30.69Z"/><path class="cls-11" d="m76.9,218.15L27.05,96.67c-1.11-2.38-.55-4.97,1.23-5.8,1.79-.83,4.12.42,5.23,2.79l59.25,117.24c1.11,2.38-2.27,6.61-6.63,8.1-2.19.75-8.13,1.52-9.23-.86Z"/><path class="cls-11" d="m103.71,69.56c.55,5.17-5.88,10.08-14.35,10.98-8.47.89-15.78-2.56-16.33-7.73-.55-5.17,5.88-10.08,14.35-10.98,8.47-.9,15.79,2.56,16.33,7.73Z"/><rect class="cls-11" x="71.82" y="49.8" width="30.85" height="21.45" transform="translate(-5.89 9.52) rotate(-6.04)"/><path class="cls-11" d="m75.38,52.32c.13,1.14-.78,2.17-2.01,2.3-1.24.13-2.34-.69-2.45-1.83l-4.78-45.08c-.12-1.13.78-2.16,2.02-2.29,1.23-.13,2.33.68,2.45,1.82l4.77,45.08Z"/><path class="cls-11" d="m101.7,50.48c.12,1.14-.78,2.17-2.01,2.3-1.24.13-2.34-.68-2.46-1.83l-4.77-45.08c-.12-1.14.78-2.16,2.02-2.29,1.23-.13,2.33.68,2.45,1.82l4.77,45.08Z"/><path class="cls-11" d="m84.2,52.14c.13,1.25-.76,2.35-1.99,2.48-1.24.13-2.34-.77-2.47-2.01l-5.21-49.19c-.13-1.24.76-2.35,2-2.48s2.34.77,2.47,2.01l5.21,49.19Z"/><path class="cls-11" d="m92.93,51.22c.14,1.24-.76,2.35-1.99,2.49-1.24.13-2.35-.77-2.48-2.02l-5.2-49.19c-.13-1.24.76-2.35,2-2.48,1.23-.13,2.34.77,2.47,2.01l5.2,49.2Z"/><path class="cls-11" d="m109.37,196.93c1.56,14.66-1.12,21.97-5.32,22.41-4.19.44-8.34-6.14-9.89-20.8-1.55-14.66.6-26.9,4.8-27.35,4.2-.44,8.86,11.08,10.41,25.74Z"/><polygon class="cls-11" points="91.49 70.86 85.26 71.52 94.17 198.54 109.37 196.93 91.49 70.86"/><path class="cls-1" d="m246.19,135.76s58.53,32.61,88.32,7.86c24.13-44.02,23.54-110.46,8.5-131.99-10.03,2.97-22.2,21.52-28.87,16.65-6.66-4.88-16.65-16.92-21.24-15.24-4.59,1.69-12.77,18.62-16.17,22.55-3.4,3.95-15.18,2.28-15.18,2.28,0,0,14.25,59.88-15.36,97.89Z"/><path class="cls-13" d="m329.72,75.24c-16.43,15.98-51.61,49.68-83.18,60.01-.12.16-.22.34-.35.5,0,0,58.53,32.61,88.32,7.86,15.62-28.48,20.83-66.3,18.53-95.32-7.07,9.62-14.8,18.68-23.33,26.95Z"/><path class="cls-10" d="m184.84,24.9s83.16,58.29,86.42,69.52c-8.61-2.72-20.83-.39-20.83-.39,0,0,10.82,20.21,5.99,24.64-4.84,4.43-19.5-4.7-22.46,3.1-2.95,7.82-11.4,29.07-17.75,30.57-6.35,1.49-30.74-2.21-37.86-6.92-7.11-4.72-53.77-54.91-53.77-54.91l60.25-65.61Z"/><path class="cls-10" d="m198.39,161.63c8.72,3.12,25.64,6.21,29.95,1.31,4.32-4.92,5.58-26.34,16.97-24.25,11.4,2.09,19.84,16.16,23.62,10,3.79-6.14.05-41.77,6.72-36.75,6.69,5.02,21.24,40.99,23.35,51.01-5.3,8.14-69.03,53.45-69.03,53.45l-31.58-54.77Z"/><path class="cls-9" d="m240.69,173.01l-.29.13c-3.08,1.37-4.53,4.94-3.27,8.07l.56,1.39c1.31,3.25,5.02,4.79,8.25,3.43l.31-.13c3.18-1.34,4.68-5.01,3.34-8.2l-.58-1.39c-1.36-3.23-5.11-4.72-8.32-3.3Z"/><path class="cls-8" d="m231.46,169.2l.43-.13c3.22-.95,6.61.8,7.7,3.98l.19.57c1.15,3.37-.73,7.02-4.14,8.04l-.43.13c-3.21.96-6.61-.79-7.71-3.96l-.2-.57c-1.17-3.38.72-7.04,4.14-8.05Z"/><rect class="cls-20" x="234.66" y="183.62" width="12.91" height="12.63" rx="6.32" ry="6.32" transform="translate(-12.03 16.36) rotate(-3.79)"/><path class="cls-9" d="m241.1,169.76l.27.16c2.92,1.75,6.7.86,8.55-1.99l.82-1.27c1.91-2.96,1.03-6.92-1.96-8.79l-.29-.18c-2.96-1.84-6.85-.94-8.7,2.01l-.81,1.29c-1.88,3-.92,6.95,2.11,8.77Z"/><path class="cls-9" d="m189.66,111.45l-.27-.16c-2.92-1.69-6.66-.76-8.45,2.11l-.8,1.27c-1.85,2.97-.92,6.88,2.08,8.69l.29.17c2.96,1.78,6.81.83,8.59-2.13l.78-1.29c1.81-3,.81-6.91-2.23-8.67Z"/><path class="cls-8" d="m187.3,101.75l.35.27c2.66,2.04,3.24,5.82,1.32,8.57l-.34.49c-2.04,2.92-6.1,3.54-8.93,1.38l-.35-.27c-2.66-2.04-3.25-5.81-1.34-8.56l.34-.49c2.04-2.93,6.12-3.56,8.95-1.39Z"/><rect class="cls-20" x="169.91" y="115.31" width="12.63" height="12.91" rx="6.32" ry="6.32" transform="translate(-37.09 141.15) rotate(-39.84)"/><path class="cls-9" d="m192.53,109.88l.03.32c.31,3.39,3.24,5.93,6.64,5.74l1.51-.08c3.52-.2,6.2-3.24,5.95-6.76l-.02-.34c-.25-3.48-3.27-6.09-6.74-5.85l-1.52.11c-3.53.25-6.16,3.35-5.85,6.87Z"/><path class="cls-8" d="m185.9,117.45l.02-.45c.14-3.38,2.91-6.05,6.3-6.06h.6c3.59-.01,6.46,2.97,6.33,6.56l-.02.45c-.13,3.38-2.9,6.05-6.28,6.07h-.61c-3.6.02-6.49-2.97-6.34-6.57Z"/><rect class="cls-20" x="202.34" y="108.34" width="12.91" height="12.63" rx="6.32" ry="6.32" transform="translate(44.02 286.68) rotate(-75.01)"/><path class="cls-9" d="m214,134.04l.02-.32c.2-3.4-2.33-6.34-5.72-6.66l-1.51-.14c-3.51-.33-6.61,2.29-6.88,5.8l-.03.34c-.27,3.47,2.33,6.51,5.8,6.78l1.52.12c3.53.28,6.59-2.4,6.8-5.93Z"/><path class="cls-8" d="m221.68,127.53l-.08.44c-.63,3.32-3.78,5.56-7.12,5.06l-.6-.09c-3.55-.52-5.95-3.9-5.29-7.42l.08-.44c.63-3.32,3.76-5.56,7.11-5.08l.6.09c3.56.51,5.98,3.9,5.3,7.44Z"/><rect class="cls-20" x="192.17" y="120.59" width="12.91" height="12.63" rx="6.32" ry="6.32" transform="translate(3.04 258.45) rotate(-66.5)"/><path class="cls-8" d="m243.33,179.58l-.35-.28c-2.65-2.1-3.18-5.92-1.2-8.66l.35-.49c2.11-2.91,6.21-3.48,9.03-1.26l.35.28c2.65,2.09,3.19,5.91,1.21,8.65l-.35.49c-2.1,2.92-6.22,3.5-9.04,1.26Z"/><rect class="cls-20" x="248.22" y="152.97" width="12.63" height="12.91" rx="6.32" ry="6.32" transform="translate(-43.63 195.51) rotate(-38.96)"/><path class="cls-9" d="m273.28,166.62l-.25-.2c-2.63-2.16-6.5-1.85-8.75.71l-1,1.14c-2.33,2.65-2.04,6.69.64,8.98l.26.22c2.65,2.26,6.63,1.95,8.9-.7l.99-1.16c2.3-2.69,1.94-6.74-.79-8.99Z"/><path class="cls-8" d="m272.53,156.58l.31.33c2.31,2.47,2.27,6.32-.1,8.74l-.42.43c-2.51,2.56-6.65,2.52-9.11-.09l-.31-.33c-2.32-2.46-2.28-6.31.08-8.73l.42-.43c2.51-2.58,6.67-2.54,9.13.09Z"/><rect class="cls-20" x="252.14" y="168.4" width="12.63" height="12.91" rx="6.32" ry="6.32" transform="translate(-52.97 155.12) rotate(-30.45)"/><path class="cls-3" d="m181.44,60.36c16.45,13.22,32.4,27.04,47.83,41.44,5.6,5.22,14.03-3.18,8.42-8.42-15.43-14.4-31.38-28.22-47.83-41.44-5.92-4.75-14.39,3.62-8.42,8.42h0Z"/><path class="cls-3" d="m166.17,77.21c13.26,10.92,25.91,22.54,37.91,34.83,5.36,5.49,13.78-2.93,8.42-8.42-12-12.29-24.64-23.91-37.91-34.83-5.87-4.83-14.34,3.54-8.42,8.42h0Z"/><path class="cls-5" d="m677.98,209.04c-53.32-6.1-81.39-8.25-81.54-12.67-.17-4.42-1.35-39.03,4.61-58.41,5.96-19.37,22.36-35.43,23.53-44.31,1.17-8.88-5.43-50.69,6.45-69.53,19.76-4.37,80.73,10.48,99.4,17.21,18.66,6.73,34.44-6.35,48.56-3.15s14.35,9.74,13.26,21.25c-1.07,11.51-24.49,80.89-26.62,104.56-2.12,23.67-2.73,48.76-7.13,49.65-4.39.88-55.15-1.69-80.53-4.59Z"/><path class="cls-12" d="m778.99,38.16c-.84-.19-1.68-.32-2.53-.4-8.49,18.74-18.94,58.78-32.23,61.52-16.1,3.32-42.26-28.23-47.09-18.48-4.83,9.75-12.3,28.01,13.09,37.3,25.39,9.29,34.49,16.35,23.78,26.31-9.16,8.5-50.05,44.51-61.52,63.99,1.83.2,3.62.4,5.49.62,25.38,2.9,76.15,5.47,80.53,4.59,4.4-.89,5.01-25.98,7.13-49.65,2.13-23.67,25.55-93.06,26.62-104.56,1.08-11.5.85-18.05-13.26-21.25Z"/><path class="cls-12" d="m631.04,24.1c-11.88,18.85-5.29,60.65-6.45,69.53-1.17,8.89-17.57,24.95-23.53,44.31-.94,3.07-1.69,6.53-2.31,10.17,8.84-9.17,19.57-19.12,31.22-27.25,29.93-20.87,15.91-30.19,15.5-42.08-.29-8.29.16-36.87,1.65-55.22-6.54-.43-12.15-.35-16.07.52Z"/><path class="cls-6" d="m792.04,47.79c-.41-1.53-1.07-2.9-2.07-4.11-.89-.87-2.15-1.85-3.69-2.9-1.9-1.03-4.21-1.92-7.29-2.62-14.12-3.2-29.9,9.88-48.56,3.15-18.53-6.68-78.71-21.34-98.92-17.28,8.55,6.83,20.31,12.24,51.96,16.94,37.54,5.58,33.21,22.44,49.8,26.04,14.88,3.24,58.93-7.73,58.75-19.23Z"/><polygon class="cls-17" points="698.35 180.67 698.03 183.21 717.81 188.92 740.66 190.09 741.55 188.22 698.35 180.67"/><polygon class="cls-21" points="698.35 180.67 720.95 170.98 741.55 188.22 717.79 186.02 698.35 180.67"/><polygon class="cls-17" points="671.75 176.53 672.23 179.04 692.81 178.4 714.91 172.49 715.18 170.43 671.75 176.53"/><polygon class="cls-18" points="671.75 176.53 690.28 160.36 715.18 170.43 691.9 175.65 671.75 176.53"/><polygon class="cls-17" points="633.47 176.44 634.12 178.91 654.61 176.91 676.27 169.57 676.41 167.49 633.47 176.44"/><polygon class="cls-14" points="633.47 176.44 650.9 159.08 676.41 167.49 653.52 174.23 633.47 176.44"/><polygon class="cls-17" points="690.52 162.73 688.9 164.7 702.49 180.16 721.11 193.45 722.87 192.35 690.52 162.73"/><polygon class="cls-7" points="690.52 162.73 714.79 166.73 722.87 192.35 704.03 177.7 690.52 162.73"/><polygon class="cls-17" points="651.76 177.09 651.66 179.64 671.85 183.68 694.71 182.94 695.44 181 651.76 177.09"/><polygon class="cls-7" points="651.76 177.09 673.48 165.55 695.44 181 671.58 180.79 651.76 177.09"/><path class="cls-2" d="m751.77,111.51c1.43-11.11-6.26-18.88-22.94-23.37-7.69-2.07-4.54-10.99-21.45-13.64-26.59-4.17-50.11,7.59-52.29,24.61-2.18,17.02,17.69,33.59,44.39,37.01,26.7,3.42,50.11-7.59,52.29-24.61Z"/><polygon class="cls-17" points="693.93 163.21 693.62 165.74 713.4 171.46 736.25 172.62 737.14 170.75 693.93 163.21"/><polygon class="cls-7" points="693.93 163.21 716.54 153.52 737.14 170.75 713.38 168.55 693.93 163.21"/><polygon class="cls-17" points="654.95 156.6 654.64 159.14 674.42 164.85 697.26 166.02 698.16 164.14 654.95 156.6"/><polygon class="cls-7" points="654.95 156.6 677.56 146.91 698.16 164.14 674.4 161.95 654.95 156.6"/><path class="cls-11" d="m808.11,127.98s-6.68,49.3-5.09,51.5c1.59,2.21,13.93,13.42,19.03,15.05,5.11,1.64,138.08,22.82,138.08,22.82l10.33-62.55-162.36-26.82Z"/><path class="cls-4" d="m996.84,202.45s10.16-10.45,10.61-13.19c.46-2.73,8.1-49.02,8.1-49.02l-45.08,14.56-10.33,62.55s34.76-12.86,36.71-14.9Z"/><path class="cls-16" d="m890.13,156.94c-3.68-.61-7.16,1.89-7.77,5.56l-6.81,41.22c4.39.72,8.85,1.44,13.34,2.17l6.81-41.19c.61-3.68-1.89-7.16-5.57-7.77Z"/><path class="cls-16" d="m943.93,165.83c-3.68-.61-7.16,1.88-7.76,5.57l-6.79,41.04c4.88.78,9.37,1.5,13.34,2.14l6.77-40.98c.6-3.69-1.88-7.16-5.57-7.77Z"/><path class="cls-16" d="m917.03,161.38c-3.68-.61-7.15,1.89-7.76,5.57l-6.81,41.15c4.55.74,9.01,1.46,13.34,2.16l6.79-41.11c.61-3.68-1.88-7.16-5.57-7.77Z"/><path class="cls-16" d="m836.33,148.05c-3.68-.61-7.16,1.88-7.76,5.57l-6.75,40.82c.08.03.16.09.23.1.9.29,5.74,1.18,13.05,2.44l6.8-41.16c.61-3.67-1.88-7.15-5.57-7.77Z"/><path class="cls-16" d="m863.23,152.5c-3.67-.61-7.15,1.88-7.77,5.56l-6.81,41.22c4.16.7,8.61,1.44,13.32,2.21l6.82-41.22c.6-3.69-1.89-7.16-5.57-7.77Z"/><polygon class="cls-4" points="808.11 127.98 866.97 115.82 1015.54 140.24 970.46 154.81 808.11 127.98"/><path class="cls-15" d="m805.64,129.5c-.26-.43-.42-.92-.43-1.45-.03-1.4.94-2.61,2.31-2.9l58.86-12.17c.35-.07.7-.08,1.06-.02l148.57,24.43c1.32.22,2.32,1.32,2.42,2.64.1,1.33-.72,2.56-2,2.97l-45.08,14.56c-.44.14-.91.17-1.36.1l-162.36-26.82c-.86-.14-1.57-.65-2-1.35Zm61.39-10.74l-43.08,8.91,146.29,24.17,33.04-10.67-136.25-22.4Z"/><path class="cls-11" d="m817.99,84.66s9.36-48.86,11.57-50.45c2.21-1.59,17.48-8.29,22.83-8.21,5.36.07,138.16,22.32,138.16,22.32l-10.11,62.59-162.45-26.25Z"/><path class="cls-4" d="m1020.6,74.14s6.31,13.14,5.86,15.88c-.44,2.74-7.93,49.05-7.93,49.05l-38.1-28.15,10.11-62.59s28.86,23.25,30.05,25.81Z"/><path class="cls-16" d="m904.96,83.32c-3.68-.6-6.18-4.07-5.59-7.74l6.67-41.25c4.39.72,8.85,1.45,13.33,2.19l-6.66,41.21c-.6,3.68-4.07,6.19-7.75,5.59Z"/><path class="cls-16" d="m958.8,92.01c-3.68-.6-6.19-4.06-5.58-7.75l6.63-41.06c4.88.81,9.36,1.56,13.33,2.22l-6.63,41c-.6,3.69-4.06,6.19-7.75,5.59Z"/><path class="cls-16" d="m931.87,87.67c-3.68-.6-6.18-4.07-5.58-7.75l6.65-41.17c4.55.75,9.01,1.49,13.34,2.2l-6.65,41.13c-.59,3.68-4.06,6.19-7.75,5.59Z"/><path class="cls-16" d="m851.13,74.62c-3.68-.6-6.19-4.06-5.58-7.75l6.59-40.84c.08,0,.18-.03.25-.03.94,0,5.82.71,13.15,1.84l-6.66,41.19c-.59,3.68-4.06,6.18-7.75,5.59Z"/><path class="cls-16" d="m878.05,78.96c-3.68-.59-6.19-4.06-5.59-7.74l6.67-41.24c4.16.66,8.62,1.38,13.33,2.15l-6.66,41.25c-.6,3.69-4.07,6.19-7.75,5.59Z"/><polygon class="cls-4" points="817.99 84.66 869.91 114.93 1018.54 139.06 980.44 110.91 817.99 84.66"/><path class="cls-15" d="m818.45,81.8l162.45,26.25c.46.07.89.26,1.26.53l38.1,28.15c1.07.79,1.47,2.22.95,3.45-.51,1.22-1.81,1.95-3.13,1.73l-148.62-24.14c-.35-.06-.69-.18-1-.35l-51.93-30.27c-1.2-.7-1.74-2.17-1.27-3.48.18-.5.48-.92.87-1.24.63-.52,1.47-.78,2.32-.64Zm188.75,52.49l-27.92-20.63-146.38-23.66,38,22.16,136.3,22.13Z"/><path class="cls-6" d="m463.56,32.4c-5.56,5.66-2.99,13.36,3.27,21.07,6.26,7.7,14.7,17.81,14.7,17.81l6.97-2.25s-8.5-8.02-14.28-15.41c-5.78-7.38-13-16.69-2.41-16.69s17.65.8,17.65.8l-25.9-5.34Z"/><path class="cls-6" d="m397.97,124.25c7.71-5.78,67.37-57.07,86.49-59.19,19.12-2.12,31.64-3.34,35.49,0,3.85,3.33-25.04,52.13-53.61,57.58-28.57,5.46-68.38,1.61-68.38,1.61Z"/><path class="cls-11" d="m561.37,85.72c-6.74-4.17-28.57-17.66-36.28-25.36-7.71-7.7-33.38-27.93-46.87-30.82-13.48-2.89-19.74,6.74-11.08,4.33,8.67-2.41,36.27,19.42,36.75,26.16.48,6.74-7.38,16.04-17.01,24.38-13.87,12.02-23.44,18.63-33.07,17.99-6.08-.4-47.35-30.5-57.94-36.27-10.59-5.78-21.18-.48-26.48,12.52-5.3,13,24.56,39.01,28.89,49.6,4.33,10.59,12.54,32.54,27.45,45.26,21.43,18.3,37.13,24.78,81.05,21.99,30.34-1.92,52.01-41.73,51.69-50.72-.32-8.99,6.1-11.56,11.87-26.96,5.78-15.41-2.24-27.93-8.98-32.1Zm-120.06,28.57c-1.93,4.82-34.11,12.04-39.16,6.74-5.06-5.3-35.18-32.05-23.83-44.54,7.41-8.16,14.69-4.82,25.04,1.45,10.36,6.26,39.88,31.54,37.96,36.36Z"/><path class="cls-16" d="m521.56,121.04c-23.11,7.71-11.56,34.67-26.96,42.37-37.75,20.59-60.22-26.03-94.63-31.02,4.66,11.45,12.6,29.88,25.77,41.13,21.43,18.3,37.13,24.78,81.05,21.99,30.34-1.92,52.01-41.73,51.69-50.72-.23-6.46,3.03-9.62,7.01-16.6-13.65-1.82-29.54-11.95-43.93-7.16Z"/><path class="cls-16" d="m460.09,150.95c-12.68-1.64-13.49-23.65-5.78-26.23,7.71-2.58,24.81-2.11,29.96,2.39,5.13,4.5-7.49,26-24.18,23.84Z"/><path class="cls-16" d="m555.27,118.15c-12.52,1.57-33.23-24.72-32.98-31.14.24-6.42,30.42-1.6,32.98,9.31,2.56,10.92,10.28,20.55,0,21.83Z"/></svg>