<?xml version="1.0" encoding="utf-8"?>
<!-- Generator: Adobe Illustrator 27.5.0, SVG Export Plug-In . SVG Version: 6.00 Build 0)  -->
<svg version="1.1" id="Layer_1" xmlns="http://www.w3.org/2000/svg" xmlns:xlink="http://www.w3.org/1999/xlink" x="0px" y="0px"
	 viewBox="0 0 1000 1000" style="enable-background:new 0 0 1000 1000;" xml:space="preserve">
<style type="text/css">
	.st0{fill:#C7EBEA;}
	.st1{fill:#99C6D1;}
	.st2{fill:#A5D2DC;}
	.st3{fill:#B4E1E3;}
	.st4{fill:#DCF3EF;}
	.st5{fill:#F9C375;}
	.st6{fill:#FFB140;}
	.st7{fill:#8AB8D1;}
	.st8{fill:#D1AA8F;}
	.st9{fill:#D8CD8D;}
	.st10{fill:#DDD392;}
	.st11{fill:#DDD6AC;}
	.st12{fill:#FFF6B8;}
	.st13{fill:#AF464E;}
	.st14{fill:#893D3D;}
	.st15{fill:#DB6300;}
	.st16{fill:#4C3B3B;}
	.st17{fill:#63BB7A;}
	.st18{fill:#FCB560;}
	.st19{fill:#E87581;}
	.st20{fill:#FFFFFF;}
</style>
<g>
	<path class="st0" d="M155.9,306.3c-26.5,5.6-55.9-27.5-65.7-73.9c-9.8-46.4,3.8-88.5,30.3-94.1c26.5-5.6,55.9,27.5,65.7,73.9
		C195.9,258.5,182.4,300.7,155.9,306.3z"/>
	<path class="st1" d="M166.1,226.7c4.9,23.3,4.2,45.4-0.9,61.9c11.1-15.2,15.2-42,9.1-70.8c-8.6-40.9-34.6-70.1-57.9-65.2
		c-1.5,0.3-3,0.8-4.4,1.4C133.9,154.5,157.4,185.2,166.1,226.7z"/>
	<path class="st0" d="M269.1,599.7L151.1,312c-2.6-5.6-1.3-11.8,2.9-13.7c4.2-2,9.8,1,12.4,6.6l140.3,277.7
		c2.6,5.6-5.4,15.7-15.7,19.2C285.8,603.5,271.7,605.4,269.1,599.7z"/>
</g>
<g>
	<path class="st0" d="M332.6,247.8c1.3,12.2-13.9,23.9-34,26c-20.1,2.1-37.4-6.1-38.7-18.3c-1.3-12.2,13.9-23.9,34-26
		C314,227.4,331.3,235.6,332.6,247.8z"/>
	<polygon class="st0" points="332.6,247.8 260,255.5 254.6,205 327.3,197.3 	"/>
	<g>
		<path class="st0" d="M265.5,207c0.3,2.7-1.8,5.1-4.8,5.5c-2.9,0.3-5.5-1.6-5.8-4.3l-11.3-106.8c-0.3-2.7,1.8-5.1,4.8-5.4
			c2.9-0.3,5.5,1.6,5.8,4.3L265.5,207z"/>
		<path class="st0" d="M327.9,202.6c0.3,2.7-1.9,5.1-4.8,5.4c-2.9,0.3-5.5-1.6-5.8-4.3L306,97c-0.3-2.7,1.8-5.1,4.8-5.4
			c2.9-0.3,5.5,1.6,5.8,4.3L327.9,202.6z"/>
		<path class="st0" d="M286.4,206.6c0.3,3-1.8,5.6-4.7,5.9c-2.9,0.3-5.5-1.8-5.9-4.8L263.5,91.2c-0.3-2.9,1.8-5.6,4.7-5.9
			c2.9-0.3,5.5,1.8,5.8,4.8L286.4,206.6z"/>
		<path class="st0" d="M307.1,204.4c0.3,2.9-1.8,5.6-4.7,5.9c-2.9,0.3-5.6-1.8-5.9-4.8L284.2,89c-0.3-2.9,1.8-5.6,4.7-5.9
			c2.9-0.3,5.5,1.8,5.9,4.8L307.1,204.4z"/>
	</g>
	<path class="st0" d="M346,549.5c3.7,34.7-2.6,52-12.6,53.1c-9.9,1.1-19.8-14.5-23.4-49.3c-3.7-34.7,1.4-63.7,11.4-64.8
		C331.3,487.5,342.4,514.8,346,549.5z"/>
	<polygon class="st0" points="303.7,250.9 288.9,252.5 310,553.3 346,549.5 	"/>
</g>
<g>
	<path class="st0" d="M467.4,733c0,0-15,110.8-11.4,115.7c3.6,5,31.3,30.2,42.8,33.8c11.5,3.7,310.3,51.3,310.3,51.3l23.2-140.5
		L467.4,733z"/>
	<path class="st2" d="M891.5,900.3c0,0,22.8-23.5,23.8-29.6c1-6.1,18.2-110.2,18.2-110.2l-101.3,32.7L809,933.8
		C809,933.8,887.1,904.9,891.5,900.3z"/>
	<g>
		<path class="st3" d="M651.7,798.1c-8.3-1.4-16.1,4.2-17.4,12.5L619,903.2c9.9,1.6,19.9,3.2,30,4.9l15.3-92.5
			C665.6,807.3,660,799.5,651.7,798.1z"/>
		<path class="st3" d="M772.6,818.1c-8.3-1.4-16.1,4.2-17.4,12.5l-15.2,92.2c11,1.8,21,3.4,30,4.8l15.2-92.1
			C786.5,827.2,780.9,819.4,772.6,818.1z"/>
		<path class="st3" d="M712.1,808.1c-8.3-1.4-16.1,4.2-17.4,12.5L679.4,913c10.2,1.7,20.3,3.3,30,4.9l15.3-92.4
			C726,817.3,720.4,809.4,712.1,808.1z"/>
		<path class="st3" d="M530.8,778.1c-8.3-1.4-16.1,4.2-17.4,12.5l-15.2,91.7c0.2,0.1,0.4,0.2,0.5,0.2c2,0.7,12.9,2.6,29.3,5.5
			l15.3-92.5C544.7,787.3,539.1,779.5,530.8,778.1z"/>
		<path class="st3" d="M591.3,788.1c-8.3-1.4-16.1,4.2-17.4,12.5l-15.3,92.6c9.3,1.6,19.4,3.2,29.9,5l15.3-92.6
			C605.1,797.3,599.5,789.5,591.3,788.1z"/>
	</g>
	<polygon class="st2" points="467.4,733 599.7,705.7 933.5,760.6 832.2,793.3 	"/>
	<g>
		<path class="st4" d="M461.9,736.4c-0.6-1-0.9-2.1-1-3.3c-0.1-3.1,2.1-5.9,5.2-6.5l132.3-27.3c0.8-0.2,1.6-0.2,2.4,0l333.8,54.9
			c3,0.5,5.2,3,5.4,5.9c0.2,3-1.6,5.8-4.5,6.7l-101.3,32.7c-1,0.3-2,0.4-3.1,0.2l-364.8-60.3C464.4,739.1,462.8,738,461.9,736.4z
			 M599.8,712.3l-96.8,20l328.7,54.3l74.2-24L599.8,712.3z"/>
	</g>
</g>
<g>
	<path class="st0" d="M489.6,635.7c0,0,21-109.8,26-113.3c5-3.6,39.3-18.6,51.3-18.5C579,504,877.3,554,877.3,554l-22.7,140.6
		L489.6,635.7z"/>
	<path class="st2" d="M944.9,612c0,0,14.2,29.5,13.2,35.7c-1,6.1-17.8,110.2-17.8,110.2l-85.6-63.3L877.3,554
		C877.3,554,942.2,606.3,944.9,612z"/>
	<g>
		<path class="st3" d="M685,632.7c-8.3-1.3-13.9-9.1-12.6-17.4l15-92.7c9.9,1.6,19.9,3.3,30,4.9l-15,92.6
			C701.1,628.4,693.3,634,685,632.7z"/>
		<path class="st3" d="M806,652.2c-8.3-1.3-13.9-9.1-12.5-17.4l14.9-92.3c11,1.8,21,3.5,30,5l-14.9,92.1
			C822.1,647.9,814.3,653.5,806,652.2z"/>
		<path class="st3" d="M745.5,642.4c-8.3-1.3-13.9-9.1-12.5-17.4l14.9-92.5c10.2,1.7,20.2,3.3,30,4.9l-14.9,92.4
			C761.6,638.1,753.8,643.8,745.5,642.4z"/>
		<path class="st3" d="M564.1,613.1c-8.3-1.3-13.9-9.1-12.5-17.4l14.8-91.8c0.2,0,0.4-0.1,0.6-0.1c2.1,0,13.1,1.6,29.5,4.1l-15,92.5
			C580.2,608.8,572.4,614.4,564.1,613.1z"/>
		<path class="st3" d="M624.6,622.9c-8.3-1.3-13.9-9.1-12.6-17.4l15-92.7c9.4,1.5,19.4,3.1,30,4.8l-15,92.7
			C640.6,618.6,632.8,624.2,624.6,622.9z"/>
	</g>
	<polygon class="st2" points="489.6,635.7 606.3,703.7 940.2,757.9 854.6,694.7 	"/>
	<g>
		<path class="st4" d="M490.6,629.2l365,59c1,0.2,2,0.6,2.8,1.2l85.6,63.3c2.4,1.8,3.3,5,2.1,7.8c-1.2,2.7-4.1,4.4-7,3.9
			l-333.9-54.2c-0.8-0.1-1.5-0.4-2.2-0.8l-116.7-68c-2.7-1.6-3.9-4.9-2.8-7.8c0.4-1.1,1.1-2.1,1.9-2.8
			C486.8,629.5,488.7,628.9,490.6,629.2z M914.8,747.2L852,700.8l-328.9-53.2l85.4,49.8L914.8,747.2z"/>
	</g>
</g>
<g>
	<path class="st5" d="M595.9,456.3c-101.3-39.3-155.2-57.9-153.2-66.6c1.9-8.7,17.4-77.1,39-112c21.6-34.9,62-57.9,68.8-74.7
		c6.8-16.8,15.3-102,48.3-132.9c40.9,1.6,152.7,61.9,185.8,84.7c33.1,22.7,70.7,5.2,96.7,18.7c26,13.5,23.1,26.4,15.1,48.4
		c-8,22-89.4,145.9-105.7,191.1c-16.3,45.3-30.3,94.1-39.4,93.6C742.2,506,644.1,475,595.9,456.3z"/>
	<path class="st6" d="M881.3,173.5c-1.5-0.8-3.1-1.5-4.8-2.1c-26.2,32.3-67.2,105.4-94.7,103.9c-33.2-1.8-68.3-76.9-82.7-60.3
		c-14.4,16.6-38.4,48.5,6.5,79.8c45,31.2,59.2,49.7,33.1,63.7c-22.3,12-120.8,61.5-153.3,93.8c3.5,1.3,6.9,2.6,10.4,4
		c48.2,18.7,146.3,49.7,155.4,50.3c9.1,0.5,23.1-48.3,39.4-93.6c16.3-45.3,97.7-169.1,105.7-191.1
		C904.4,199.9,907.3,187,881.3,173.5z"/>
	<path class="st6" d="M598.7,70.1c-32.9,30.8-41.4,116.1-48.3,132.9c-6.8,16.8-47.2,39.8-68.8,74.7c-3.4,5.5-6.7,11.9-9.7,18.7
		C493.9,283,520,269,547,259c69.3-25.5,46.6-51,51.9-74.5c3.7-16.4,19.2-72.1,31.5-107.3C617.9,73.1,606.9,70.4,598.7,70.1z"/>
	<path class="st7" d="M901.9,199c0-3.2-0.6-6.2-1.9-9.1c-1.3-2.2-3.3-4.7-5.7-7.6c-3.2-3-7.3-5.9-12.9-8.9
		c-26-13.5-63.6,4-96.7-18.7c-32.9-22.6-143.2-82.1-184.9-84.5C613,88,633.2,104.6,692.8,130c70.7,30.2,53.5,61,84.2,76.5
		C804.4,220.5,896.3,221.6,901.9,199z"/>
</g>
<g>
	<polygon class="st8" points="650.3,411.2 648.4,416 684.2,437.3 728.3,451.3 731,448.1 	"/>
	<polygon class="st9" points="650.3,411.2 699.5,403.8 731,448.1 685.6,431.6 	"/>
</g>
<g>
	<polygon class="st8" points="600.3,389.5 600,394.6 640.6,403.9 686.9,403.7 688.5,399.8 	"/>
	<polygon class="st10" points="600.3,389.5 644.9,367.3 688.5,399.8 640.2,398 	"/>
</g>
<g>
	<polygon class="st8" points="525.4,369.6 525.4,374.8 566.6,381.4 612.8,378.1 614.1,374.1 	"/>
	<polygon class="st11" points="525.4,369.6 568.5,344.6 614.1,374.1 565.8,375.6 	"/>
</g>
<g>
	<polygon class="st8" points="644.2,372 640,375.1 658.7,412.3 688.3,447.9 692.3,446.6 	"/>
	<polygon class="st12" points="644.2,372 689.6,392.3 692.3,446.6 662.9,408.3 	"/>
</g>
<g>
	<polygon class="st8" points="560.9,380.3 559.4,385.2 596.9,403.5 642,413.8 644.4,410.3 	"/>
	<polygon class="st12" points="560.9,380.3 609.3,368.8 644.4,410.3 597.8,397.7 	"/>
</g>
<g>
	<path class="st13" d="M268.2,809.9c0,0,86.3,48.1,130.2,11.6c35.6-64.9,34.7-162.8,12.5-194.5c-14.8,4.4-32.7,31.7-42.5,24.5
		c-9.8-7.2-24.5-24.9-31.3-22.5c-6.8,2.5-18.8,27.4-23.8,33.2c-5,5.8-22.4,3.4-22.4,3.4S311.9,753.9,268.2,809.9z"/>
	<path class="st14" d="M391.3,720.7c-24.2,23.5-76.1,73.2-122.6,88.5c-0.2,0.2-0.3,0.5-0.5,0.7c0,0,86.3,48.1,130.2,11.6
		c23-42,30.7-97.7,27.3-140.5C415.3,695.2,403.9,708.5,391.3,720.7z"/>
</g>
<path class="st15" d="M790.4,303.1c8.5-21-2.6-40.2-32.9-57.5c-14-8-3.3-23.9-35-37.7c-49.9-21.8-102-10.8-115,21.4
	s17.4,74.8,68,95.2C725.9,344.9,777.4,335.3,790.4,303.1z"/>
<g>
	<polygon class="st8" points="650.6,374.7 648.7,379.5 684.5,400.9 728.6,414.9 731.3,411.6 	"/>
	<polygon class="st12" points="650.6,374.7 699.8,367.3 731.3,411.6 685.9,395.2 	"/>
</g>
<g>
	<polygon class="st8" points="577.7,341.8 575.7,346.6 611.5,367.9 655.7,381.9 658.4,378.7 	"/>
	<polygon class="st12" points="577.7,341.8 626.9,334.4 658.4,378.7 613,362.2 	"/>
</g>
<g>
	<path class="st16" d="M177.8,646.5c0,0,122.6,85.9,127.4,102.5c-12.7-4-30.7-0.6-30.7-0.6s15.9,29.8,8.8,36.3
		c-7.1,6.5-28.7-6.9-33.1,4.6c-4.3,11.5-16.8,42.8-26.2,45.1c-9.4,2.2-45.3-3.3-55.8-10.2c-10.5-7-79.2-80.9-79.2-80.9L177.8,646.5z
		"/>
	<path class="st16" d="M197.8,848c12.9,4.6,37.8,9.2,44.1,1.9c6.4-7.3,8.2-38.8,25-35.7c16.8,3.1,29.2,23.8,34.8,14.7
		c5.6-9,0.1-61.6,9.9-54.2c9.9,7.4,31.3,60.4,34.4,75.2c-7.8,12-101.7,78.8-101.7,78.8L197.8,848z"/>
</g>
<path class="st17" d="M260.1,864.8l-0.4,0.2c-4.5,2-6.7,7.3-4.8,11.9l0.8,2.1c1.9,4.8,7.4,7.1,12.2,5.1l0.5-0.2
	c4.7-2,6.9-7.4,4.9-12.1l-0.9-2C270.4,864.9,264.8,862.7,260.1,864.8z"/>
<path class="st18" d="M246.5,859.2l0.6-0.2c4.7-1.4,9.7,1.2,11.4,5.9l0.3,0.8c1.7,5-1.1,10.3-6.1,11.8l-0.6,0.2
	c-4.7,1.4-9.7-1.2-11.4-5.8l-0.3-0.8C238.7,866.1,241.5,860.7,246.5,859.2z"/>
<path class="st19" d="M259.9,880.5l0.4,0c5.1-0.3,9.6,3.5,9.9,8.7l0,0c0.3,5.1-3.5,9.6-8.7,9.9l-0.4,0c-5.1,0.3-9.6-3.5-9.9-8.7l0,0
	C250.9,885.2,254.8,880.8,259.9,880.5z"/>
<path class="st17" d="M260.7,860l0.4,0.2c4.3,2.6,9.9,1.3,12.6-2.9l1.2-1.9c2.8-4.4,1.5-10.2-2.9-13l-0.4-0.3
	c-4.4-2.7-10.1-1.4-12.8,3l-1.2,1.9C254.8,851.5,256.2,857.3,260.7,860z"/>
<path class="st17" d="M184.9,774.1l-0.4-0.2c-4.3-2.5-9.8-1.1-12.4,3.1l-1.2,1.9c-2.7,4.4-1.4,10.1,3.1,12.8l0.4,0.3
	c4.4,2.6,10,1.2,12.7-3.1l1.1-1.9C190.9,782.4,189.4,776.7,184.9,774.1z"/>
<path class="st18" d="M181.4,759.8l0.5,0.4c3.9,3,4.8,8.6,1.9,12.6l-0.5,0.7c-3,4.3-9,5.2-13.2,2l-0.5-0.4c-3.9-3-4.8-8.6-2-12.6
	l0.5-0.7C171.2,757.5,177.2,756.6,181.4,759.8z"/>
<path class="st19" d="M172.1,783.2l0.3,0.3c3.3,3.9,2.8,9.8-1.2,13.1h0c-3.9,3.3-9.8,2.8-13.1-1.2l-0.3-0.3
	c-3.3-3.9-2.8-9.8,1.2-13.1h0C163,778.7,168.8,779.2,172.1,783.2z"/>
<path class="st17" d="M189.1,771.8l0,0.5c0.5,5,4.8,8.7,9.8,8.5l2.2-0.1c5.2-0.3,9.1-4.8,8.8-10l0-0.5c-0.4-5.1-4.8-9-9.9-8.6
	l-2.2,0.2C192.5,762,188.7,766.6,189.1,771.8z"/>
<path class="st18" d="M179.4,782.9l0-0.7c0.2-5,4.3-8.9,9.3-8.9l0.9,0c5.3,0,9.5,4.4,9.3,9.7l0,0.7c-0.2,5-4.3,8.9-9.3,8.9l-0.9,0
	C183.4,792.6,179.1,788.2,179.4,782.9z"/>
<path class="st19" d="M204.1,776.6l0.1-0.4c1.3-5,6.4-7.9,11.4-6.6h0c5,1.3,7.9,6.4,6.6,11.4l-0.1,0.4c-1.3,5-6.4,7.9-11.4,6.6l0,0
	C205.7,786.7,202.7,781.6,204.1,776.6z"/>
<path class="st17" d="M220.8,807.4l0-0.5c0.3-5-3.4-9.3-8.4-9.8l-2.2-0.2c-5.2-0.5-9.7,3.4-10.1,8.6l0,0.5c-0.4,5.1,3.4,9.6,8.6,10
	l2.2,0.2C216,816.5,220.5,812.6,220.8,807.4z"/>
<path class="st18" d="M232.1,797.8l-0.1,0.7c-0.9,4.9-5.6,8.2-10.5,7.5l-0.9-0.1c-5.2-0.8-8.8-5.7-7.8-10.9l0.1-0.6
	c0.9-4.9,5.5-8.2,10.5-7.5l0.9,0.1C229.5,787.6,233.1,792.6,232.1,797.8z"/>
<path class="st19" d="M206.7,800.4l-0.2,0.4c-2,4.7-7.5,6.9-12.2,4.8h0c-4.7-2-6.9-7.5-4.8-12.2l0.2-0.4c2-4.7,7.5-6.9,12.2-4.8h0
	C206.6,790.2,208.8,795.7,206.7,800.4z"/>
<path class="st18" d="M264,874.5l-0.5-0.4c-3.9-3.1-4.7-8.7-1.8-12.8l0.5-0.7c3.1-4.3,9.1-5.1,13.3-1.8l0.5,0.4
	c3.9,3.1,4.7,8.7,1.8,12.7l-0.5,0.7C274.2,876.9,268.2,877.8,264,874.5z"/>
<path class="st19" d="M273.4,850.8l-0.3-0.3c-3.2-4-2.6-9.9,1.4-13.1l0,0c4-3.2,9.9-2.6,13.1,1.4l0.3,0.3c3.2,4,2.6,9.9-1.4,13.1
	l0,0C282.5,855.4,276.6,854.8,273.4,850.8z"/>
<path class="st17" d="M308.1,855.4l-0.4-0.3c-3.9-3.2-9.6-2.7-12.9,1l-1.5,1.7c-3.4,3.9-3,9.9,0.9,13.2l0.4,0.3
	c3.9,3.3,9.8,2.9,13.1-1l1.5-1.7C312.7,864.7,312.2,858.7,308.1,855.4z"/>
<path class="st18" d="M307,840.6l0.5,0.5c3.4,3.6,3.3,9.3-0.1,12.9l-0.6,0.6c-3.7,3.8-9.8,3.7-13.4-0.1l-0.5-0.5
	c-3.4-3.6-3.4-9.3,0.1-12.9l0.6-0.6C297.3,836.7,303.4,836.7,307,840.6z"/>
<path class="st19" d="M294.2,862.6l0.2,0.4c2.6,4.4,1.1,10.1-3.3,12.7h0c-4.4,2.6-10.1,1.1-12.7-3.3l-0.2-0.4
	c-2.6-4.4-1.1-10.1,3.3-12.7l0,0C285.9,856.7,291.6,858.2,294.2,862.6z"/>
<g>
	<g>
		<path class="st20" d="M174.8,696.8c24.3,19.5,47.8,39.8,70.5,61.1c5.6,5.2,14-3.2,8.4-8.4c-22.7-21.2-46.2-41.6-70.5-61.1
			C177.3,683.6,168.8,692,174.8,696.8L174.8,696.8z"/>
	</g>
</g>
<g>
	<g>
		<path class="st20" d="M152.3,721.6c19.6,16.1,38.2,33.2,55.9,51.3c5.4,5.5,13.8-2.9,8.4-8.4c-17.7-18.1-36.3-35.3-55.9-51.3
			C154.8,708.4,146.3,716.7,152.3,721.6L152.3,721.6z"/>
	</g>
</g>
</svg>
